<?xml version="1.0" encoding="UTF-8" standalone="no"?>
<!DOCTYPE svg PUBLIC "-//W3C//DTD SVG 1.1//EN"
 "http://www.w3.org/Graphics/SVG/1.1/DTD/svg11.dtd">
<!-- Generated by graphviz version 8.0.5 (20230430.1635)
 -->
<!-- Pages: 1 -->
<svg width="1260pt" height="210pt"
 viewBox="0.00 0.00 1259.75 210.00" xmlns="http://www.w3.org/2000/svg" xmlns:xlink="http://www.w3.org/1999/xlink">
<g id="graph0" class="graph" transform="scale(1 1) rotate(0) translate(4 206)">
<polygon fill="white" stroke="none" points="-4,4 -4,-206 1255.75,-206 1255.75,4 -4,4"/>
<!-- 4834592656 -->
<g id="node1" class="node">
<title>4834592656</title>
<polygon fill="none" stroke="black" points="2.25,-165.5 2.25,-201.5 195.75,-201.5 195.75,-165.5 2.25,-165.5"/>
<text text-anchor="middle" x="18.5" y="-178.7" font-family="Times,serif" font-size="14.00">w2</text>
<polyline fill="none" stroke="black" points="34.75,-166 34.75,-201.5"/>
<text text-anchor="middle" x="74.62" y="-178.7" font-family="Times,serif" font-size="14.00">data 1.0000</text>
<polyline fill="none" stroke="black" points="114.5,-166 114.5,-201.5"/>
<text text-anchor="middle" x="155.12" y="-178.7" font-family="Times,serif" font-size="14.00">grad 0.0000</text>
</g>
<!-- 4834603664* -->
<g id="node3" class="node">
<title>4834603664*</title>
<ellipse fill="none" stroke="black" cx="261" cy="-128.5" rx="27" ry="18"/>
<text text-anchor="middle" x="261" y="-123.45" font-family="Times,serif" font-size="14.00">*</text>
</g>
<!-- 4834592656&#45;&gt;4834603664* -->
<g id="edge7" class="edge">
<title>4834592656&#45;&gt;4834603664*</title>
<path fill="none" stroke="black" d="M170.28,-165.56C179.67,-162.75 189.12,-159.71 198,-156.5 208.31,-152.78 219.28,-148.08 229.1,-143.59"/>
<polygon fill="black" stroke="black" points="230.24,-146.46 237.82,-139.05 227.28,-140.11 230.24,-146.46"/>
</g>
<!-- 4834603664 -->
<g id="node2" class="node">
<title>4834603664</title>
<polygon fill="none" stroke="black" points="326.25,-110.5 326.25,-146.5 540,-146.5 540,-110.5 326.25,-110.5"/>
<text text-anchor="middle" x="352.62" y="-123.7" font-family="Times,serif" font-size="14.00">x2*w2</text>
<polyline fill="none" stroke="black" points="379,-111 379,-146.5"/>
<text text-anchor="middle" x="418.88" y="-123.7" font-family="Times,serif" font-size="14.00">data 0.0000</text>
<polyline fill="none" stroke="black" points="458.75,-111 458.75,-146.5"/>
<text text-anchor="middle" x="499.38" y="-123.7" font-family="Times,serif" font-size="14.00">grad 0.0000</text>
</g>
<!-- 4834603472+ -->
<g id="node13" class="node">
<title>4834603472+</title>
<ellipse fill="none" stroke="black" cx="605.25" cy="-100.5" rx="27" ry="18"/>
<text text-anchor="middle" x="605.25" y="-95.45" font-family="Times,serif" font-size="14.00">+</text>
</g>
<!-- 4834603664&#45;&gt;4834603472+ -->
<g id="edge8" class="edge">
<title>4834603664&#45;&gt;4834603472+</title>
<path fill="none" stroke="black" d="M539.93,-111.09C549.89,-109.45 559.45,-107.87 568.01,-106.46"/>
<polygon fill="black" stroke="black" points="568.34,-109.79 577.64,-104.72 567.2,-102.89 568.34,-109.79"/>
</g>
<!-- 4834603664*&#45;&gt;4834603664 -->
<g id="edge1" class="edge">
<title>4834603664*&#45;&gt;4834603664</title>
<path fill="none" stroke="black" d="M288.21,-128.5C296.23,-128.5 305.63,-128.5 315.71,-128.5"/>
<polygon fill="black" stroke="black" points="315.43,-132 325.43,-128.5 315.43,-125 315.43,-132"/>
</g>
<!-- 4831091856 -->
<g id="node4" class="node">
<title>4831091856</title>
<polygon fill="none" stroke="black" points="3.75,-55.5 3.75,-91.5 194.25,-91.5 194.25,-55.5 3.75,-55.5"/>
<text text-anchor="middle" x="18.5" y="-68.7" font-family="Times,serif" font-size="14.00">x1</text>
<polyline fill="none" stroke="black" points="33.25,-56 33.25,-91.5"/>
<text text-anchor="middle" x="73.12" y="-68.7" font-family="Times,serif" font-size="14.00">data 2.0000</text>
<polyline fill="none" stroke="black" points="113,-56 113,-91.5"/>
<text text-anchor="middle" x="153.62" y="-68.7" font-family="Times,serif" font-size="14.00">grad 0.0000</text>
</g>
<!-- 4832755024* -->
<g id="node9" class="node">
<title>4832755024*</title>
<ellipse fill="none" stroke="black" cx="261" cy="-73.5" rx="27" ry="18"/>
<text text-anchor="middle" x="261" y="-68.45" font-family="Times,serif" font-size="14.00">*</text>
</g>
<!-- 4831091856&#45;&gt;4832755024* -->
<g id="edge12" class="edge">
<title>4831091856&#45;&gt;4832755024*</title>
<path fill="none" stroke="black" d="M194,-73.5C204.12,-73.5 213.93,-73.5 222.76,-73.5"/>
<polygon fill="black" stroke="black" points="222.74,-77 232.74,-73.5 222.74,-70 222.74,-77"/>
</g>
<!-- 4834606800 -->
<g id="node5" class="node">
<title>4834606800</title>
<polygon fill="none" stroke="black" points="713.25,-27.5 713.25,-63.5 897,-63.5 897,-27.5 713.25,-27.5"/>
<text text-anchor="middle" x="724.62" y="-40.7" font-family="Times,serif" font-size="14.00">b</text>
<polyline fill="none" stroke="black" points="736,-28 736,-63.5"/>
<text text-anchor="middle" x="775.88" y="-40.7" font-family="Times,serif" font-size="14.00">data 6.7000</text>
<polyline fill="none" stroke="black" points="815.75,-28 815.75,-63.5"/>
<text text-anchor="middle" x="856.38" y="-40.7" font-family="Times,serif" font-size="14.00">grad 0.0000</text>
</g>
<!-- 4834599120+ -->
<g id="node7" class="node">
<title>4834599120+</title>
<ellipse fill="none" stroke="black" cx="1005" cy="-72.5" rx="27" ry="18"/>
<text text-anchor="middle" x="1005" y="-67.45" font-family="Times,serif" font-size="14.00">+</text>
</g>
<!-- 4834606800&#45;&gt;4834599120+ -->
<g id="edge11" class="edge">
<title>4834606800&#45;&gt;4834599120+</title>
<path fill="none" stroke="black" d="M896.95,-57.89C921.87,-61.29 947.48,-64.79 967.39,-67.51"/>
<polygon fill="black" stroke="black" points="966.74,-71.09 977.12,-68.97 967.69,-64.15 966.74,-71.09"/>
</g>
<!-- 4834599120 -->
<g id="node6" class="node">
<title>4834599120</title>
<polygon fill="none" stroke="black" points="1068,-54.5 1068,-90.5 1251.75,-90.5 1251.75,-54.5 1068,-54.5"/>
<text text-anchor="middle" x="1079.38" y="-67.7" font-family="Times,serif" font-size="14.00">n</text>
<polyline fill="none" stroke="black" points="1090.75,-55 1090.75,-90.5"/>
<text text-anchor="middle" x="1130.62" y="-67.7" font-family="Times,serif" font-size="14.00">data 0.7000</text>
<polyline fill="none" stroke="black" points="1170.5,-55 1170.5,-90.5"/>
<text text-anchor="middle" x="1211.12" y="-67.7" font-family="Times,serif" font-size="14.00">grad 0.0000</text>
</g>
<!-- 4834599120+&#45;&gt;4834599120 -->
<g id="edge2" class="edge">
<title>4834599120+&#45;&gt;4834599120</title>
<path fill="none" stroke="black" d="M1032.28,-72.5C1039.7,-72.5 1048.26,-72.5 1057.35,-72.5"/>
<polygon fill="black" stroke="black" points="1057.22,-76 1067.22,-72.5 1057.22,-69 1057.22,-76"/>
</g>
<!-- 4832755024 -->
<g id="node8" class="node">
<title>4832755024</title>
<polygon fill="none" stroke="black" points="324,-55.5 324,-91.5 542.25,-91.5 542.25,-55.5 324,-55.5"/>
<text text-anchor="middle" x="350.38" y="-68.7" font-family="Times,serif" font-size="14.00">x1*w1</text>
<polyline fill="none" stroke="black" points="376.75,-56 376.75,-91.5"/>
<text text-anchor="middle" x="418.88" y="-68.7" font-family="Times,serif" font-size="14.00">data &#45;6.0000</text>
<polyline fill="none" stroke="black" points="461,-56 461,-91.5"/>
<text text-anchor="middle" x="501.62" y="-68.7" font-family="Times,serif" font-size="14.00">grad 0.0000</text>
</g>
<!-- 4832755024&#45;&gt;4834603472+ -->
<g id="edge9" class="edge">
<title>4832755024&#45;&gt;4834603472+</title>
<path fill="none" stroke="black" d="M541.87,-90.6C551.1,-92.06 559.95,-93.47 567.93,-94.74"/>
<polygon fill="black" stroke="black" points="567.17,-98.32 577.59,-96.43 568.27,-91.4 567.17,-98.32"/>
</g>
<!-- 4832755024*&#45;&gt;4832755024 -->
<g id="edge3" class="edge">
<title>4832755024*&#45;&gt;4832755024</title>
<path fill="none" stroke="black" d="M288.21,-73.5C295.58,-73.5 304.1,-73.5 313.25,-73.5"/>
<polygon fill="black" stroke="black" points="313.24,-77 323.24,-73.5 313.24,-70 313.24,-77"/>
</g>
<!-- 4834598736 -->
<g id="node10" class="node">
<title>4834598736</title>
<polygon fill="none" stroke="black" points="0,-0.5 0,-36.5 198,-36.5 198,-0.5 0,-0.5"/>
<text text-anchor="middle" x="16.25" y="-13.7" font-family="Times,serif" font-size="14.00">w1</text>
<polyline fill="none" stroke="black" points="32.5,-1 32.5,-36.5"/>
<text text-anchor="middle" x="74.62" y="-13.7" font-family="Times,serif" font-size="14.00">data &#45;3.0000</text>
<polyline fill="none" stroke="black" points="116.75,-1 116.75,-36.5"/>
<text text-anchor="middle" x="157.38" y="-13.7" font-family="Times,serif" font-size="14.00">grad 0.0000</text>
</g>
<!-- 4834598736&#45;&gt;4832755024* -->
<g id="edge10" class="edge">
<title>4834598736&#45;&gt;4832755024*</title>
<path fill="none" stroke="black" d="M167.33,-36.46C177.67,-39.59 188.17,-42.97 198,-46.5 208.06,-50.11 218.81,-54.57 228.49,-58.82"/>
<polygon fill="black" stroke="black" points="226.92,-62.4 237.48,-63.29 229.78,-56.01 226.92,-62.4"/>
</g>
<!-- 4834596752 -->
<g id="node11" class="node">
<title>4834596752</title>
<polygon fill="none" stroke="black" points="3.75,-110.5 3.75,-146.5 194.25,-146.5 194.25,-110.5 3.75,-110.5"/>
<text text-anchor="middle" x="18.5" y="-123.7" font-family="Times,serif" font-size="14.00">x2</text>
<polyline fill="none" stroke="black" points="33.25,-111 33.25,-146.5"/>
<text text-anchor="middle" x="73.12" y="-123.7" font-family="Times,serif" font-size="14.00">data 0.0000</text>
<polyline fill="none" stroke="black" points="113,-111 113,-146.5"/>
<text text-anchor="middle" x="153.62" y="-123.7" font-family="Times,serif" font-size="14.00">grad 0.0000</text>
</g>
<!-- 4834596752&#45;&gt;4834603664* -->
<g id="edge6" class="edge">
<title>4834596752&#45;&gt;4834603664*</title>
<path fill="none" stroke="black" d="M194,-128.5C204.12,-128.5 213.93,-128.5 222.76,-128.5"/>
<polygon fill="black" stroke="black" points="222.74,-132 232.74,-128.5 222.74,-125 222.74,-132"/>
</g>
<!-- 4834603472 -->
<g id="node12" class="node">
<title>4834603472</title>
<polygon fill="none" stroke="black" points="668.25,-82.5 668.25,-118.5 942,-118.5 942,-82.5 668.25,-82.5"/>
<text text-anchor="middle" x="722.38" y="-95.7" font-family="Times,serif" font-size="14.00">x1*w1 + w2*w2</text>
<polyline fill="none" stroke="black" points="776.5,-83 776.5,-118.5"/>
<text text-anchor="middle" x="818.62" y="-95.7" font-family="Times,serif" font-size="14.00">data &#45;6.0000</text>
<polyline fill="none" stroke="black" points="860.75,-83 860.75,-118.5"/>
<text text-anchor="middle" x="901.38" y="-95.7" font-family="Times,serif" font-size="14.00">grad 0.0000</text>
</g>
<!-- 4834603472&#45;&gt;4834599120+ -->
<g id="edge5" class="edge">
<title>4834603472&#45;&gt;4834599120+</title>
<path fill="none" stroke="black" d="M933.12,-82.53C945.48,-80.78 957.2,-79.12 967.42,-77.68"/>
<polygon fill="black" stroke="black" points="967.87,-81.01 977.28,-76.14 966.89,-74.07 967.87,-81.01"/>
</g>
<!-- 4834603472+&#45;&gt;4834603472 -->
<g id="edge4" class="edge">
<title>4834603472+&#45;&gt;4834603472</title>
<path fill="none" stroke="black" d="M632.53,-100.5C639.86,-100.5 648.38,-100.5 657.63,-100.5"/>
<polygon fill="black" stroke="black" points="657.35,-104 667.35,-100.5 657.35,-97 657.35,-104"/>
</g>
</g>
</svg>
