<?xml version="1.0" encoding="UTF-8" standalone="no"?>
<!DOCTYPE svg PUBLIC "-//W3C//DTD SVG 1.1//EN"
 "http://www.w3.org/Graphics/SVG/1.1/DTD/svg11.dtd">
<!-- Generated by graphviz version 8.0.5 (20230430.1635)
 -->
<!-- Pages: 1 -->
<svg width="578pt" height="128pt"
 viewBox="0.00 0.00 578.00 128.00" xmlns="http://www.w3.org/2000/svg" xmlns:xlink="http://www.w3.org/1999/xlink">
<g id="graph0" class="graph" transform="scale(1 1) rotate(0) translate(4 124)">
<polygon fill="white" stroke="none" points="-4,4 -4,-124 574,-124 574,4 -4,4"/>
<!-- 4831201360 -->
<g id="node1" class="node">
<title>4831201360</title>
<polygon fill="none" stroke="black" points="0,-83.5 0,-119.5 107,-119.5 107,-83.5 0,-83.5"/>
<text text-anchor="middle" x="11.38" y="-96.7" font-family="Times,serif" font-size="14.00">b</text>
<polyline fill="none" stroke="black" points="22.75,-84 22.75,-119.5"/>
<text text-anchor="middle" x="64.88" y="-96.7" font-family="Times,serif" font-size="14.00">data &#45;3.0000</text>
</g>
<!-- 4831200976* -->
<g id="node5" class="node">
<title>4831200976*</title>
<ellipse fill="none" stroke="black" cx="170" cy="-73.5" rx="27" ry="18"/>
<text text-anchor="middle" x="170" y="-68.45" font-family="Times,serif" font-size="14.00">*</text>
</g>
<!-- 4831201360&#45;&gt;4831200976* -->
<g id="edge5" class="edge">
<title>4831201360&#45;&gt;4831200976*</title>
<path fill="none" stroke="black" d="M106.72,-88.73C115.83,-86.5 125.1,-84.23 133.62,-82.15"/>
<polygon fill="black" stroke="black" points="134.41,-85.32 143.3,-79.54 132.75,-78.52 134.41,-85.32"/>
</g>
<!-- 4647277712 -->
<g id="node2" class="node">
<title>4647277712</title>
<polygon fill="none" stroke="black" points="467.5,-27.5 467.5,-63.5 570,-63.5 570,-27.5 467.5,-27.5"/>
<text text-anchor="middle" x="478.88" y="-40.7" font-family="Times,serif" font-size="14.00">d</text>
<polyline fill="none" stroke="black" points="490.25,-28 490.25,-63.5"/>
<text text-anchor="middle" x="530.12" y="-40.7" font-family="Times,serif" font-size="14.00">data 4.0000</text>
</g>
<!-- 4647277712+ -->
<g id="node3" class="node">
<title>4647277712+</title>
<ellipse fill="none" stroke="black" cx="404.5" cy="-45.5" rx="27" ry="18"/>
<text text-anchor="middle" x="404.5" y="-40.45" font-family="Times,serif" font-size="14.00">+</text>
</g>
<!-- 4647277712+&#45;&gt;4647277712 -->
<g id="edge1" class="edge">
<title>4647277712+&#45;&gt;4647277712</title>
<path fill="none" stroke="black" d="M431.82,-45.5C439.47,-45.5 448.15,-45.5 456.99,-45.5"/>
<polygon fill="black" stroke="black" points="456.8,-49 466.8,-45.5 456.8,-42 456.8,-49"/>
</g>
<!-- 4831200976 -->
<g id="node4" class="node">
<title>4831200976</title>
<polygon fill="none" stroke="black" points="234.12,-55.5 234.12,-91.5 340.38,-91.5 340.38,-55.5 234.12,-55.5"/>
<text text-anchor="middle" x="245.12" y="-68.7" font-family="Times,serif" font-size="14.00">e</text>
<polyline fill="none" stroke="black" points="256.12,-56 256.12,-91.5"/>
<text text-anchor="middle" x="298.25" y="-68.7" font-family="Times,serif" font-size="14.00">data &#45;6.0000</text>
</g>
<!-- 4831200976&#45;&gt;4647277712+ -->
<g id="edge6" class="edge">
<title>4831200976&#45;&gt;4647277712+</title>
<path fill="none" stroke="black" d="M340.14,-60.89C349.55,-58.61 359.17,-56.27 367.97,-54.13"/>
<polygon fill="black" stroke="black" points="368.73,-57.31 377.62,-51.55 367.07,-50.51 368.73,-57.31"/>
</g>
<!-- 4831200976*&#45;&gt;4831200976 -->
<g id="edge2" class="edge">
<title>4831200976*&#45;&gt;4831200976</title>
<path fill="none" stroke="black" d="M197.44,-73.5C205.37,-73.5 214.43,-73.5 223.65,-73.5"/>
<polygon fill="black" stroke="black" points="223.51,-77 233.51,-73.5 223.51,-70 223.51,-77"/>
</g>
<!-- 4831205584 -->
<g id="node6" class="node">
<title>4831205584</title>
<polygon fill="none" stroke="black" points="2.62,-28.5 2.62,-64.5 104.38,-64.5 104.38,-28.5 2.62,-28.5"/>
<text text-anchor="middle" x="13.62" y="-41.7" font-family="Times,serif" font-size="14.00">a</text>
<polyline fill="none" stroke="black" points="24.62,-29 24.62,-64.5"/>
<text text-anchor="middle" x="64.5" y="-41.7" font-family="Times,serif" font-size="14.00">data 2.0000</text>
</g>
<!-- 4831205584&#45;&gt;4831200976* -->
<g id="edge3" class="edge">
<title>4831205584&#45;&gt;4831200976*</title>
<path fill="none" stroke="black" d="M104.06,-58.19C113.96,-60.52 124.18,-62.93 133.49,-65.13"/>
<polygon fill="black" stroke="black" points="132.4,-68.7 142.94,-67.59 134.01,-61.89 132.4,-68.7"/>
</g>
<!-- 4831205200 -->
<g id="node7" class="node">
<title>4831205200</title>
<polygon fill="none" stroke="black" points="233,-0.5 233,-36.5 341.5,-36.5 341.5,-0.5 233,-0.5"/>
<text text-anchor="middle" x="244" y="-13.7" font-family="Times,serif" font-size="14.00">c</text>
<polyline fill="none" stroke="black" points="255,-1 255,-36.5"/>
<text text-anchor="middle" x="298.25" y="-13.7" font-family="Times,serif" font-size="14.00">data 10.0000</text>
</g>
<!-- 4831205200&#45;&gt;4647277712+ -->
<g id="edge4" class="edge">
<title>4831205200&#45;&gt;4647277712+</title>
<path fill="none" stroke="black" d="M341.49,-30.97C350.51,-33.09 359.68,-35.23 368.1,-37.21"/>
<polygon fill="black" stroke="black" points="367.12,-40.81 377.66,-39.68 368.72,-33.99 367.12,-40.81"/>
</g>
</g>
</svg>
