<?xml version="1.0" encoding="UTF-8" standalone="no"?>
<!DOCTYPE svg PUBLIC "-//W3C//DTD SVG 1.1//EN"
 "http://www.w3.org/Graphics/SVG/1.1/DTD/svg11.dtd">
<!-- Generated by graphviz version 8.0.5 (20230430.1635)
 -->
<!-- Pages: 1 -->
<svg width="2929pt" height="236pt"
 viewBox="0.00 0.00 2929.25 236.00" xmlns="http://www.w3.org/2000/svg" xmlns:xlink="http://www.w3.org/1999/xlink">
<g id="graph0" class="graph" transform="scale(1 1) rotate(0) translate(4 232)">
<polygon fill="white" stroke="none" points="-4,4 -4,-232 2925.25,-232 2925.25,4 -4,4"/>
<!-- 4836170768 -->
<g id="node1" class="node">
<title>4836170768</title>
<polygon fill="none" stroke="black" points="1681.5,-191.5 1681.5,-227.5 1866.75,-227.5 1866.75,-191.5 1681.5,-191.5"/>
<text text-anchor="middle" x="1691.38" y="-204.7" font-family="Times,serif" font-size="14.00"> </text>
<polyline fill="none" stroke="black" points="1701.25,-192 1701.25,-227.5"/>
<text text-anchor="middle" x="1741.12" y="-204.7" font-family="Times,serif" font-size="14.00">data 1.0000</text>
<polyline fill="none" stroke="black" points="1781,-192 1781,-227.5"/>
<text text-anchor="middle" x="1823.88" y="-204.7" font-family="Times,serif" font-size="14.00">grad &#45;0.1036</text>
</g>
<!-- 4836174096+ -->
<g id="node16" class="node">
<title>4836174096+</title>
<ellipse fill="none" stroke="black" cx="1929.75" cy="-181.5" rx="27" ry="18"/>
<text text-anchor="middle" x="1929.75" y="-176.45" font-family="Times,serif" font-size="14.00">+</text>
</g>
<!-- 4836170768&#45;&gt;4836174096+ -->
<g id="edge27" class="edge">
<title>4836170768&#45;&gt;4836174096+</title>
<path fill="none" stroke="black" d="M1866.71,-192.81C1875.79,-191.15 1884.59,-189.55 1892.57,-188.09"/>
<polygon fill="black" stroke="black" points="1893.03,-191.39 1902.24,-186.15 1891.78,-184.5 1893.03,-191.39"/>
</g>
<!-- 4836174928 -->
<g id="node2" class="node">
<title>4836174928</title>
<polygon fill="none" stroke="black" points="2430.75,-161.5 2430.75,-197.5 2611.5,-197.5 2611.5,-161.5 2430.75,-161.5"/>
<text text-anchor="middle" x="2440.62" y="-174.7" font-family="Times,serif" font-size="14.00"> </text>
<polyline fill="none" stroke="black" points="2450.5,-162 2450.5,-197.5"/>
<text text-anchor="middle" x="2490.38" y="-174.7" font-family="Times,serif" font-size="14.00">data 0.1464</text>
<polyline fill="none" stroke="black" points="2530.25,-162 2530.25,-197.5"/>
<text text-anchor="middle" x="2570.88" y="-174.7" font-family="Times,serif" font-size="14.00">grad 4.8284</text>
</g>
<!-- 4836175056* -->
<g id="node11" class="node">
<title>4836175056*</title>
<ellipse fill="none" stroke="black" cx="2674.5" cy="-153.5" rx="27" ry="18"/>
<text text-anchor="middle" x="2674.5" y="-148.45" font-family="Times,serif" font-size="14.00">*</text>
</g>
<!-- 4836174928&#45;&gt;4836175056* -->
<g id="edge20" class="edge">
<title>4836174928&#45;&gt;4836175056*</title>
<path fill="none" stroke="black" d="M2611.49,-164.15C2620.54,-162.6 2629.32,-161.09 2637.29,-159.72"/>
<polygon fill="black" stroke="black" points="2637.7,-163.03 2646.96,-157.89 2636.51,-156.13 2637.7,-163.03"/>
</g>
<!-- 4836174928**&#45;1 -->
<g id="node3" class="node">
<title>4836174928**&#45;1</title>
<ellipse fill="none" stroke="black" cx="2304.38" cy="-181.5" rx="27.81" ry="18"/>
<text text-anchor="middle" x="2304.38" y="-176.45" font-family="Times,serif" font-size="14.00">**&#45;1</text>
</g>
<!-- 4836174928**&#45;1&#45;&gt;4836174928 -->
<g id="edge1" class="edge">
<title>4836174928**&#45;1&#45;&gt;4836174928</title>
<path fill="none" stroke="black" d="M2332.57,-181.25C2354.88,-181.04 2387.92,-180.73 2420.07,-180.43"/>
<polygon fill="black" stroke="black" points="2419.96,-183.92 2429.93,-180.33 2419.89,-176.92 2419.96,-183.92"/>
</g>
<!-- 4836169296 -->
<g id="node4" class="node">
<title>4836169296</title>
<polygon fill="none" stroke="black" points="2214,-108.5 2214,-144.5 2394.75,-144.5 2394.75,-108.5 2214,-108.5"/>
<text text-anchor="middle" x="2223.88" y="-121.7" font-family="Times,serif" font-size="14.00"> </text>
<polyline fill="none" stroke="black" points="2233.75,-109 2233.75,-144.5"/>
<text text-anchor="middle" x="2273.62" y="-121.7" font-family="Times,serif" font-size="14.00">data 4.8284</text>
<polyline fill="none" stroke="black" points="2313.5,-109 2313.5,-144.5"/>
<text text-anchor="middle" x="2354.12" y="-121.7" font-family="Times,serif" font-size="14.00">grad 0.1464</text>
</g>
<!-- 4836169296&#45;&gt;4836175056* -->
<g id="edge12" class="edge">
<title>4836169296&#45;&gt;4836175056*</title>
<path fill="none" stroke="black" d="M2394.49,-133.04C2471.93,-138.72 2580.25,-146.66 2636.42,-150.78"/>
<polygon fill="black" stroke="black" points="2636.03,-154.33 2646.26,-151.58 2636.54,-147.35 2636.03,-154.33"/>
</g>
<!-- 4836169296+ -->
<g id="node5" class="node">
<title>4836169296+</title>
<ellipse fill="none" stroke="black" cx="1929.75" cy="-126.5" rx="27" ry="18"/>
<text text-anchor="middle" x="1929.75" y="-121.45" font-family="Times,serif" font-size="14.00">+</text>
</g>
<!-- 4836169296+&#45;&gt;4836169296 -->
<g id="edge2" class="edge">
<title>4836169296+&#45;&gt;4836169296</title>
<path fill="none" stroke="black" d="M1957.25,-126.5C2007.82,-126.5 2120.46,-126.5 2203.58,-126.5"/>
<polygon fill="black" stroke="black" points="2203.33,-130 2213.33,-126.5 2203.33,-123 2203.33,-130"/>
</g>
<!-- 4836178512 -->
<g id="node6" class="node">
<title>4836178512</title>
<polygon fill="none" stroke="black" points="1681.5,-81.5 1681.5,-117.5 1866.75,-117.5 1866.75,-81.5 1681.5,-81.5"/>
<text text-anchor="middle" x="1691.38" y="-94.7" font-family="Times,serif" font-size="14.00"> </text>
<polyline fill="none" stroke="black" points="1701.25,-82 1701.25,-117.5"/>
<text text-anchor="middle" x="1743.38" y="-94.7" font-family="Times,serif" font-size="14.00">data &#45;1.0000</text>
<polyline fill="none" stroke="black" points="1785.5,-82 1785.5,-117.5"/>
<text text-anchor="middle" x="1826.12" y="-94.7" font-family="Times,serif" font-size="14.00">grad 0.1464</text>
</g>
<!-- 4836178512&#45;&gt;4836169296+ -->
<g id="edge28" class="edge">
<title>4836178512&#45;&gt;4836169296+</title>
<path fill="none" stroke="black" d="M1866.71,-115.6C1875.79,-117.19 1884.59,-118.74 1892.57,-120.14"/>
<polygon fill="black" stroke="black" points="1891.79,-123.73 1902.24,-122.02 1893,-116.84 1891.79,-123.73"/>
</g>
<!-- 4836171408 -->
<g id="node7" class="node">
<title>4836171408</title>
<polygon fill="none" stroke="black" points="326.25,-110.5 326.25,-146.5 540,-146.5 540,-110.5 326.25,-110.5"/>
<text text-anchor="middle" x="352.62" y="-123.7" font-family="Times,serif" font-size="14.00">x2*w2</text>
<polyline fill="none" stroke="black" points="379,-111 379,-146.5"/>
<text text-anchor="middle" x="418.88" y="-123.7" font-family="Times,serif" font-size="14.00">data 0.0000</text>
<polyline fill="none" stroke="black" points="458.75,-111 458.75,-146.5"/>
<text text-anchor="middle" x="499.38" y="-123.7" font-family="Times,serif" font-size="14.00">grad 0.5000</text>
</g>
<!-- 4836173264+ -->
<g id="node28" class="node">
<title>4836173264+</title>
<ellipse fill="none" stroke="black" cx="605.25" cy="-100.5" rx="27" ry="18"/>
<text text-anchor="middle" x="605.25" y="-95.45" font-family="Times,serif" font-size="14.00">+</text>
</g>
<!-- 4836171408&#45;&gt;4836173264+ -->
<g id="edge18" class="edge">
<title>4836171408&#45;&gt;4836173264+</title>
<path fill="none" stroke="black" d="M539.93,-111.09C549.89,-109.45 559.45,-107.87 568.01,-106.46"/>
<polygon fill="black" stroke="black" points="568.34,-109.79 577.64,-104.72 567.2,-102.89 568.34,-109.79"/>
</g>
<!-- 4836171408* -->
<g id="node8" class="node">
<title>4836171408*</title>
<ellipse fill="none" stroke="black" cx="261" cy="-128.5" rx="27" ry="18"/>
<text text-anchor="middle" x="261" y="-123.45" font-family="Times,serif" font-size="14.00">*</text>
</g>
<!-- 4836171408*&#45;&gt;4836171408 -->
<g id="edge3" class="edge">
<title>4836171408*&#45;&gt;4836171408</title>
<path fill="none" stroke="black" d="M288.21,-128.5C296.23,-128.5 305.63,-128.5 315.71,-128.5"/>
<polygon fill="black" stroke="black" points="315.43,-132 325.43,-128.5 315.43,-125 315.43,-132"/>
</g>
<!-- 4836176528 -->
<g id="node9" class="node">
<title>4836176528</title>
<polygon fill="none" stroke="black" points="3.75,-165.5 3.75,-201.5 194.25,-201.5 194.25,-165.5 3.75,-165.5"/>
<text text-anchor="middle" x="18.5" y="-178.7" font-family="Times,serif" font-size="14.00">x2</text>
<polyline fill="none" stroke="black" points="33.25,-166 33.25,-201.5"/>
<text text-anchor="middle" x="73.12" y="-178.7" font-family="Times,serif" font-size="14.00">data 0.0000</text>
<polyline fill="none" stroke="black" points="113,-166 113,-201.5"/>
<text text-anchor="middle" x="153.62" y="-178.7" font-family="Times,serif" font-size="14.00">grad 0.5000</text>
</g>
<!-- 4836176528&#45;&gt;4836171408* -->
<g id="edge11" class="edge">
<title>4836176528&#45;&gt;4836171408*</title>
<path fill="none" stroke="black" d="M170.28,-165.56C179.67,-162.75 189.12,-159.71 198,-156.5 208.31,-152.78 219.28,-148.08 229.1,-143.59"/>
<polygon fill="black" stroke="black" points="230.24,-146.46 237.82,-139.05 227.28,-140.11 230.24,-146.46"/>
</g>
<!-- 4836175056 -->
<g id="node10" class="node">
<title>4836175056</title>
<polygon fill="none" stroke="black" points="2737.5,-135.5 2737.5,-171.5 2921.25,-171.5 2921.25,-135.5 2737.5,-135.5"/>
<text text-anchor="middle" x="2748.88" y="-148.7" font-family="Times,serif" font-size="14.00">o</text>
<polyline fill="none" stroke="black" points="2760.25,-136 2760.25,-171.5"/>
<text text-anchor="middle" x="2800.12" y="-148.7" font-family="Times,serif" font-size="14.00">data 0.7071</text>
<polyline fill="none" stroke="black" points="2840,-136 2840,-171.5"/>
<text text-anchor="middle" x="2880.62" y="-148.7" font-family="Times,serif" font-size="14.00">grad 1.0000</text>
</g>
<!-- 4836175056*&#45;&gt;4836175056 -->
<g id="edge4" class="edge">
<title>4836175056*&#45;&gt;4836175056</title>
<path fill="none" stroke="black" d="M2701.78,-153.5C2709.2,-153.5 2717.76,-153.5 2726.85,-153.5"/>
<polygon fill="black" stroke="black" points="2726.72,-157 2736.72,-153.5 2726.72,-150 2726.72,-157"/>
</g>
<!-- 4836173008 -->
<g id="node12" class="node">
<title>4836173008</title>
<polygon fill="none" stroke="black" points="1066.5,-164.5 1066.5,-200.5 1247.25,-200.5 1247.25,-164.5 1066.5,-164.5"/>
<text text-anchor="middle" x="1076.38" y="-177.7" font-family="Times,serif" font-size="14.00"> </text>
<polyline fill="none" stroke="black" points="1086.25,-165 1086.25,-200.5"/>
<text text-anchor="middle" x="1126.12" y="-177.7" font-family="Times,serif" font-size="14.00">data 2.0000</text>
<polyline fill="none" stroke="black" points="1166,-165 1166,-200.5"/>
<text text-anchor="middle" x="1206.62" y="-177.7" font-family="Times,serif" font-size="14.00">grad 0.2203</text>
</g>
<!-- 4836170576* -->
<g id="node21" class="node">
<title>4836170576*</title>
<ellipse fill="none" stroke="black" cx="1311.75" cy="-154.5" rx="27" ry="18"/>
<text text-anchor="middle" x="1311.75" y="-149.45" font-family="Times,serif" font-size="14.00">*</text>
</g>
<!-- 4836173008&#45;&gt;4836170576* -->
<g id="edge17" class="edge">
<title>4836173008&#45;&gt;4836170576*</title>
<path fill="none" stroke="black" d="M1247.25,-166.13C1256.77,-164.39 1266.02,-162.69 1274.37,-161.16"/>
<polygon fill="black" stroke="black" points="1274.95,-164.43 1284.16,-159.19 1273.69,-157.55 1274.95,-164.43"/>
</g>
<!-- 4836170448 -->
<g id="node13" class="node">
<title>4836170448</title>
<polygon fill="none" stroke="black" points="324,-55.5 324,-91.5 542.25,-91.5 542.25,-55.5 324,-55.5"/>
<text text-anchor="middle" x="350.38" y="-68.7" font-family="Times,serif" font-size="14.00">x1*w1</text>
<polyline fill="none" stroke="black" points="376.75,-56 376.75,-91.5"/>
<text text-anchor="middle" x="418.88" y="-68.7" font-family="Times,serif" font-size="14.00">data &#45;6.0000</text>
<polyline fill="none" stroke="black" points="461,-56 461,-91.5"/>
<text text-anchor="middle" x="501.62" y="-68.7" font-family="Times,serif" font-size="14.00">grad 0.5000</text>
</g>
<!-- 4836170448&#45;&gt;4836173264+ -->
<g id="edge16" class="edge">
<title>4836170448&#45;&gt;4836173264+</title>
<path fill="none" stroke="black" d="M541.87,-90.6C551.1,-92.06 559.95,-93.47 567.93,-94.74"/>
<polygon fill="black" stroke="black" points="567.17,-98.32 577.59,-96.43 568.27,-91.4 567.17,-98.32"/>
</g>
<!-- 4836170448* -->
<g id="node14" class="node">
<title>4836170448*</title>
<ellipse fill="none" stroke="black" cx="261" cy="-73.5" rx="27" ry="18"/>
<text text-anchor="middle" x="261" y="-68.45" font-family="Times,serif" font-size="14.00">*</text>
</g>
<!-- 4836170448*&#45;&gt;4836170448 -->
<g id="edge5" class="edge">
<title>4836170448*&#45;&gt;4836170448</title>
<path fill="none" stroke="black" d="M288.21,-73.5C295.58,-73.5 304.1,-73.5 313.25,-73.5"/>
<polygon fill="black" stroke="black" points="313.24,-77 323.24,-73.5 313.24,-70 313.24,-77"/>
</g>
<!-- 4836174096 -->
<g id="node15" class="node">
<title>4836174096</title>
<polygon fill="none" stroke="black" points="1992.75,-163.5 1992.75,-199.5 2178,-199.5 2178,-163.5 1992.75,-163.5"/>
<text text-anchor="middle" x="2002.62" y="-176.7" font-family="Times,serif" font-size="14.00"> </text>
<polyline fill="none" stroke="black" points="2012.5,-164 2012.5,-199.5"/>
<text text-anchor="middle" x="2052.38" y="-176.7" font-family="Times,serif" font-size="14.00">data 6.8284</text>
<polyline fill="none" stroke="black" points="2092.25,-164 2092.25,-199.5"/>
<text text-anchor="middle" x="2135.12" y="-176.7" font-family="Times,serif" font-size="14.00">grad &#45;0.1036</text>
</g>
<!-- 4836174096&#45;&gt;4836174928**&#45;1 -->
<g id="edge26" class="edge">
<title>4836174096&#45;&gt;4836174928**&#45;1</title>
<path fill="none" stroke="black" d="M2177.77,-181.5C2208.57,-181.5 2241.26,-181.5 2265.56,-181.5"/>
<polygon fill="black" stroke="black" points="2265.44,-185 2275.44,-181.5 2265.44,-178 2265.44,-185"/>
</g>
<!-- 4836174096+&#45;&gt;4836174096 -->
<g id="edge6" class="edge">
<title>4836174096+&#45;&gt;4836174096</title>
<path fill="none" stroke="black" d="M1957.16,-181.5C1964.56,-181.5 1973.07,-181.5 1982.12,-181.5"/>
<polygon fill="black" stroke="black" points="1981.95,-185 1991.95,-181.5 1981.95,-178 1981.95,-185"/>
</g>
<!-- 4836179728 -->
<g id="node17" class="node">
<title>4836179728</title>
<polygon fill="none" stroke="black" points="711.75,-137.5 711.75,-173.5 895.5,-173.5 895.5,-137.5 711.75,-137.5"/>
<text text-anchor="middle" x="723.12" y="-150.7" font-family="Times,serif" font-size="14.00">b</text>
<polyline fill="none" stroke="black" points="734.5,-138 734.5,-173.5"/>
<text text-anchor="middle" x="774.38" y="-150.7" font-family="Times,serif" font-size="14.00">data 6.8814</text>
<polyline fill="none" stroke="black" points="814.25,-138 814.25,-173.5"/>
<text text-anchor="middle" x="854.88" y="-150.7" font-family="Times,serif" font-size="14.00">grad 0.5000</text>
</g>
<!-- 4836172112+ -->
<g id="node23" class="node">
<title>4836172112+</title>
<ellipse fill="none" stroke="black" cx="1002" cy="-127.5" rx="27" ry="18"/>
<text text-anchor="middle" x="1002" y="-122.45" font-family="Times,serif" font-size="14.00">+</text>
</g>
<!-- 4836179728&#45;&gt;4836172112+ -->
<g id="edge23" class="edge">
<title>4836179728&#45;&gt;4836172112+</title>
<path fill="none" stroke="black" d="M895.34,-142.57C919.7,-139.09 944.68,-135.53 964.23,-132.74"/>
<polygon fill="black" stroke="black" points="964.66,-136.07 974.07,-131.2 963.68,-129.14 964.66,-136.07"/>
</g>
<!-- 4836177168 -->
<g id="node18" class="node">
<title>4836177168</title>
<polygon fill="none" stroke="black" points="0,-55.5 0,-91.5 198,-91.5 198,-55.5 0,-55.5"/>
<text text-anchor="middle" x="16.25" y="-68.7" font-family="Times,serif" font-size="14.00">w1</text>
<polyline fill="none" stroke="black" points="32.5,-56 32.5,-91.5"/>
<text text-anchor="middle" x="74.62" y="-68.7" font-family="Times,serif" font-size="14.00">data &#45;3.0000</text>
<polyline fill="none" stroke="black" points="116.75,-56 116.75,-91.5"/>
<text text-anchor="middle" x="157.38" y="-68.7" font-family="Times,serif" font-size="14.00">grad 1.0000</text>
</g>
<!-- 4836177168&#45;&gt;4836170448* -->
<g id="edge19" class="edge">
<title>4836177168&#45;&gt;4836170448*</title>
<path fill="none" stroke="black" d="M197.68,-73.5C206.51,-73.5 215.04,-73.5 222.8,-73.5"/>
<polygon fill="black" stroke="black" points="222.58,-77 232.58,-73.5 222.58,-70 222.58,-77"/>
</g>
<!-- 4836167440 -->
<g id="node19" class="node">
<title>4836167440</title>
<polygon fill="none" stroke="black" points="1.5,-0.5 1.5,-36.5 196.5,-36.5 196.5,-0.5 1.5,-0.5"/>
<text text-anchor="middle" x="16.25" y="-13.7" font-family="Times,serif" font-size="14.00">x1</text>
<polyline fill="none" stroke="black" points="31,-1 31,-36.5"/>
<text text-anchor="middle" x="70.88" y="-13.7" font-family="Times,serif" font-size="14.00">data 2.0000</text>
<polyline fill="none" stroke="black" points="110.75,-1 110.75,-36.5"/>
<text text-anchor="middle" x="153.62" y="-13.7" font-family="Times,serif" font-size="14.00">grad &#45;1.5000</text>
</g>
<!-- 4836167440&#45;&gt;4836170448* -->
<g id="edge13" class="edge">
<title>4836167440&#45;&gt;4836170448*</title>
<path fill="none" stroke="black" d="M170.28,-36.44C179.67,-39.25 189.12,-42.29 198,-45.5 208.31,-49.22 219.28,-53.92 229.1,-58.41"/>
<polygon fill="black" stroke="black" points="227.28,-61.89 237.82,-62.95 230.24,-55.54 227.28,-61.89"/>
</g>
<!-- 4836170576 -->
<g id="node20" class="node">
<title>4836170576</title>
<polygon fill="none" stroke="black" points="1374.75,-136.5 1374.75,-172.5 1555.5,-172.5 1555.5,-136.5 1374.75,-136.5"/>
<text text-anchor="middle" x="1384.62" y="-149.7" font-family="Times,serif" font-size="14.00"> </text>
<polyline fill="none" stroke="black" points="1394.5,-137 1394.5,-172.5"/>
<text text-anchor="middle" x="1434.38" y="-149.7" font-family="Times,serif" font-size="14.00">data 1.7627</text>
<polyline fill="none" stroke="black" points="1474.25,-137 1474.25,-172.5"/>
<text text-anchor="middle" x="1514.88" y="-149.7" font-family="Times,serif" font-size="14.00">grad 0.2500</text>
</g>
<!-- 4836179856exp -->
<g id="node26" class="node">
<title>4836179856exp</title>
<ellipse fill="none" stroke="black" cx="1618.5" cy="-154.5" rx="27" ry="18"/>
<text text-anchor="middle" x="1618.5" y="-149.45" font-family="Times,serif" font-size="14.00">exp</text>
</g>
<!-- 4836170576&#45;&gt;4836179856exp -->
<g id="edge25" class="edge">
<title>4836170576&#45;&gt;4836179856exp</title>
<path fill="none" stroke="black" d="M1555.49,-154.5C1564.08,-154.5 1572.42,-154.5 1580.06,-154.5"/>
<polygon fill="black" stroke="black" points="1580.05,-158 1590.05,-154.5 1580.05,-151 1580.05,-158"/>
</g>
<!-- 4836170576*&#45;&gt;4836170576 -->
<g id="edge7" class="edge">
<title>4836170576*&#45;&gt;4836170576</title>
<path fill="none" stroke="black" d="M1339.12,-154.5C1346.55,-154.5 1355.1,-154.5 1364.17,-154.5"/>
<polygon fill="black" stroke="black" points="1364.02,-158 1374.02,-154.5 1364.02,-151 1364.02,-158"/>
</g>
<!-- 4836172112 -->
<g id="node22" class="node">
<title>4836172112</title>
<polygon fill="none" stroke="black" points="1065,-109.5 1065,-145.5 1248.75,-145.5 1248.75,-109.5 1065,-109.5"/>
<text text-anchor="middle" x="1076.38" y="-122.7" font-family="Times,serif" font-size="14.00">n</text>
<polyline fill="none" stroke="black" points="1087.75,-110 1087.75,-145.5"/>
<text text-anchor="middle" x="1127.62" y="-122.7" font-family="Times,serif" font-size="14.00">data 0.8814</text>
<polyline fill="none" stroke="black" points="1167.5,-110 1167.5,-145.5"/>
<text text-anchor="middle" x="1208.12" y="-122.7" font-family="Times,serif" font-size="14.00">grad 0.5000</text>
</g>
<!-- 4836172112&#45;&gt;4836170576* -->
<g id="edge21" class="edge">
<title>4836172112&#45;&gt;4836170576*</title>
<path fill="none" stroke="black" d="M1248.57,-143.52C1257.66,-145.12 1266.47,-146.68 1274.46,-148.09"/>
<polygon fill="black" stroke="black" points="1273.71,-151.69 1284.16,-149.98 1274.92,-144.79 1273.71,-151.69"/>
</g>
<!-- 4836172112+&#45;&gt;4836172112 -->
<g id="edge8" class="edge">
<title>4836172112+&#45;&gt;4836172112</title>
<path fill="none" stroke="black" d="M1029.28,-127.5C1036.7,-127.5 1045.26,-127.5 1054.35,-127.5"/>
<polygon fill="black" stroke="black" points="1054.22,-131 1064.22,-127.5 1054.22,-124 1054.22,-131"/>
</g>
<!-- 4836175760 -->
<g id="node24" class="node">
<title>4836175760</title>
<polygon fill="none" stroke="black" points="2.25,-110.5 2.25,-146.5 195.75,-146.5 195.75,-110.5 2.25,-110.5"/>
<text text-anchor="middle" x="18.5" y="-123.7" font-family="Times,serif" font-size="14.00">w2</text>
<polyline fill="none" stroke="black" points="34.75,-111 34.75,-146.5"/>
<text text-anchor="middle" x="74.62" y="-123.7" font-family="Times,serif" font-size="14.00">data 1.0000</text>
<polyline fill="none" stroke="black" points="114.5,-111 114.5,-146.5"/>
<text text-anchor="middle" x="155.12" y="-123.7" font-family="Times,serif" font-size="14.00">grad 0.0000</text>
</g>
<!-- 4836175760&#45;&gt;4836171408* -->
<g id="edge15" class="edge">
<title>4836175760&#45;&gt;4836171408*</title>
<path fill="none" stroke="black" d="M195.38,-128.5C205.05,-128.5 214.4,-128.5 222.84,-128.5"/>
<polygon fill="black" stroke="black" points="222.75,-132 232.75,-128.5 222.75,-125 222.75,-132"/>
</g>
<!-- 4836179856 -->
<g id="node25" class="node">
<title>4836179856</title>
<polygon fill="none" stroke="black" points="1683.75,-136.5 1683.75,-172.5 1864.5,-172.5 1864.5,-136.5 1683.75,-136.5"/>
<text text-anchor="middle" x="1693.62" y="-149.7" font-family="Times,serif" font-size="14.00"> </text>
<polyline fill="none" stroke="black" points="1703.5,-137 1703.5,-172.5"/>
<text text-anchor="middle" x="1743.38" y="-149.7" font-family="Times,serif" font-size="14.00">data 5.8284</text>
<polyline fill="none" stroke="black" points="1783.25,-137 1783.25,-172.5"/>
<text text-anchor="middle" x="1823.88" y="-149.7" font-family="Times,serif" font-size="14.00">grad 0.0429</text>
</g>
<!-- 4836179856&#45;&gt;4836169296+ -->
<g id="edge22" class="edge">
<title>4836179856&#45;&gt;4836169296+</title>
<path fill="none" stroke="black" d="M1864.49,-138.21C1874.4,-136.41 1884.03,-134.65 1892.69,-133.07"/>
<polygon fill="black" stroke="black" points="1893.24,-136.35 1902.45,-131.11 1891.98,-129.46 1893.24,-136.35"/>
</g>
<!-- 4836179856&#45;&gt;4836174096+ -->
<g id="edge14" class="edge">
<title>4836179856&#45;&gt;4836174096+</title>
<path fill="none" stroke="black" d="M1864.49,-170.21C1874.31,-171.93 1883.85,-173.61 1892.44,-175.12"/>
<polygon fill="black" stroke="black" points="1891.68,-178.71 1902.14,-177 1892.9,-171.82 1891.68,-178.71"/>
</g>
<!-- 4836179856exp&#45;&gt;4836179856 -->
<g id="edge9" class="edge">
<title>4836179856exp&#45;&gt;4836179856</title>
<path fill="none" stroke="black" d="M1645.91,-154.5C1653.91,-154.5 1663.22,-154.5 1673.09,-154.5"/>
<polygon fill="black" stroke="black" points="1672.99,-158 1682.99,-154.5 1672.99,-151 1672.99,-158"/>
</g>
<!-- 4836173264 -->
<g id="node27" class="node">
<title>4836173264</title>
<polygon fill="none" stroke="black" points="668.25,-82.5 668.25,-118.5 939,-118.5 939,-82.5 668.25,-82.5"/>
<text text-anchor="middle" x="720.88" y="-95.7" font-family="Times,serif" font-size="14.00">x1*w1 + x2*w2</text>
<polyline fill="none" stroke="black" points="773.5,-83 773.5,-118.5"/>
<text text-anchor="middle" x="815.62" y="-95.7" font-family="Times,serif" font-size="14.00">data &#45;6.0000</text>
<polyline fill="none" stroke="black" points="857.75,-83 857.75,-118.5"/>
<text text-anchor="middle" x="898.38" y="-95.7" font-family="Times,serif" font-size="14.00">grad 0.5000</text>
</g>
<!-- 4836173264&#45;&gt;4836172112+ -->
<g id="edge24" class="edge">
<title>4836173264&#45;&gt;4836172112+</title>
<path fill="none" stroke="black" d="M935.34,-118.47C945.74,-119.9 955.6,-121.26 964.36,-122.46"/>
<polygon fill="black" stroke="black" points="963.82,-126.06 974.2,-123.95 964.77,-119.12 963.82,-126.06"/>
</g>
<!-- 4836173264+&#45;&gt;4836173264 -->
<g id="edge10" class="edge">
<title>4836173264+&#45;&gt;4836173264</title>
<path fill="none" stroke="black" d="M632.73,-100.5C639.96,-100.5 648.32,-100.5 657.38,-100.5"/>
<polygon fill="black" stroke="black" points="657.32,-104 667.32,-100.5 657.32,-97 657.32,-104"/>
</g>
</g>
</svg>
