<?xml version="1.0" encoding="UTF-8" standalone="no"?>
<!DOCTYPE svg PUBLIC "-//W3C//DTD SVG 1.1//EN"
 "http://www.w3.org/Graphics/SVG/1.1/DTD/svg11.dtd">
<!-- Generated by graphviz version 8.0.5 (20230430.1635)
 -->
<!-- Pages: 1 -->
<svg width="1567pt" height="210pt"
 viewBox="0.00 0.00 1566.50 210.00" xmlns="http://www.w3.org/2000/svg" xmlns:xlink="http://www.w3.org/1999/xlink">
<g id="graph0" class="graph" transform="scale(1 1) rotate(0) translate(4 206)">
<polygon fill="white" stroke="none" points="-4,4 -4,-206 1562.5,-206 1562.5,4 -4,4"/>
<!-- 4834750480 -->
<g id="node1" class="node">
<title>4834750480</title>
<polygon fill="none" stroke="black" points="3.75,-165.5 3.75,-201.5 194.25,-201.5 194.25,-165.5 3.75,-165.5"/>
<text text-anchor="middle" x="18.5" y="-178.7" font-family="Times,serif" font-size="14.00">x1</text>
<polyline fill="none" stroke="black" points="33.25,-166 33.25,-201.5"/>
<text text-anchor="middle" x="73.12" y="-178.7" font-family="Times,serif" font-size="14.00">data 2.0000</text>
<polyline fill="none" stroke="black" points="113,-166 113,-201.5"/>
<text text-anchor="middle" x="153.62" y="-178.7" font-family="Times,serif" font-size="14.00">grad 0.0000</text>
</g>
<!-- 4833354128* -->
<g id="node14" class="node">
<title>4833354128*</title>
<ellipse fill="none" stroke="black" cx="261" cy="-128.5" rx="27" ry="18"/>
<text text-anchor="middle" x="261" y="-123.45" font-family="Times,serif" font-size="14.00">*</text>
</g>
<!-- 4834750480&#45;&gt;4833354128* -->
<g id="edge9" class="edge">
<title>4834750480&#45;&gt;4833354128*</title>
<path fill="none" stroke="black" d="M170.28,-165.56C179.67,-162.75 189.12,-159.71 198,-156.5 208.31,-152.78 219.28,-148.08 229.1,-143.59"/>
<polygon fill="black" stroke="black" points="230.24,-146.46 237.82,-139.05 227.28,-140.11 230.24,-146.46"/>
</g>
<!-- 4832376848 -->
<g id="node2" class="node">
<title>4832376848</title>
<polygon fill="none" stroke="black" points="3.75,-55.5 3.75,-91.5 194.25,-91.5 194.25,-55.5 3.75,-55.5"/>
<text text-anchor="middle" x="18.5" y="-68.7" font-family="Times,serif" font-size="14.00">x2</text>
<polyline fill="none" stroke="black" points="33.25,-56 33.25,-91.5"/>
<text text-anchor="middle" x="73.12" y="-68.7" font-family="Times,serif" font-size="14.00">data 0.0000</text>
<polyline fill="none" stroke="black" points="113,-56 113,-91.5"/>
<text text-anchor="middle" x="153.62" y="-68.7" font-family="Times,serif" font-size="14.00">grad 0.0000</text>
</g>
<!-- 4833348304* -->
<g id="node9" class="node">
<title>4833348304*</title>
<ellipse fill="none" stroke="black" cx="261" cy="-73.5" rx="27" ry="18"/>
<text text-anchor="middle" x="261" y="-68.45" font-family="Times,serif" font-size="14.00">*</text>
</g>
<!-- 4832376848&#45;&gt;4833348304* -->
<g id="edge10" class="edge">
<title>4832376848&#45;&gt;4833348304*</title>
<path fill="none" stroke="black" d="M194,-73.5C204.12,-73.5 213.93,-73.5 222.76,-73.5"/>
<polygon fill="black" stroke="black" points="222.74,-77 232.74,-73.5 222.74,-70 222.74,-77"/>
</g>
<!-- 4833346640 -->
<g id="node3" class="node">
<title>4833346640</title>
<polygon fill="none" stroke="black" points="1068,-54.5 1068,-90.5 1251.75,-90.5 1251.75,-54.5 1068,-54.5"/>
<text text-anchor="middle" x="1079.38" y="-67.7" font-family="Times,serif" font-size="14.00">n</text>
<polyline fill="none" stroke="black" points="1090.75,-55 1090.75,-90.5"/>
<text text-anchor="middle" x="1130.62" y="-67.7" font-family="Times,serif" font-size="14.00">data 2.0000</text>
<polyline fill="none" stroke="black" points="1170.5,-55 1170.5,-90.5"/>
<text text-anchor="middle" x="1211.12" y="-67.7" font-family="Times,serif" font-size="14.00">grad 0.0000</text>
</g>
<!-- 4833353552tanh -->
<g id="node12" class="node">
<title>4833353552tanh</title>
<ellipse fill="none" stroke="black" cx="1314.75" cy="-72.5" rx="27" ry="18"/>
<text text-anchor="middle" x="1314.75" y="-67.45" font-family="Times,serif" font-size="14.00">tanh</text>
</g>
<!-- 4833346640&#45;&gt;4833353552tanh -->
<g id="edge12" class="edge">
<title>4833346640&#45;&gt;4833353552tanh</title>
<path fill="none" stroke="black" d="M1251.57,-72.5C1260.3,-72.5 1268.76,-72.5 1276.5,-72.5"/>
<polygon fill="black" stroke="black" points="1276.25,-76 1286.25,-72.5 1276.25,-69 1276.25,-76"/>
</g>
<!-- 4833346640+ -->
<g id="node4" class="node">
<title>4833346640+</title>
<ellipse fill="none" stroke="black" cx="1005" cy="-72.5" rx="27" ry="18"/>
<text text-anchor="middle" x="1005" y="-67.45" font-family="Times,serif" font-size="14.00">+</text>
</g>
<!-- 4833346640+&#45;&gt;4833346640 -->
<g id="edge1" class="edge">
<title>4833346640+&#45;&gt;4833346640</title>
<path fill="none" stroke="black" d="M1032.28,-72.5C1039.7,-72.5 1048.26,-72.5 1057.35,-72.5"/>
<polygon fill="black" stroke="black" points="1057.22,-76 1067.22,-72.5 1057.22,-69 1057.22,-76"/>
</g>
<!-- 4834741904 -->
<g id="node5" class="node">
<title>4834741904</title>
<polygon fill="none" stroke="black" points="713.25,-27.5 713.25,-63.5 897,-63.5 897,-27.5 713.25,-27.5"/>
<text text-anchor="middle" x="724.62" y="-40.7" font-family="Times,serif" font-size="14.00">b</text>
<polyline fill="none" stroke="black" points="736,-28 736,-63.5"/>
<text text-anchor="middle" x="775.88" y="-40.7" font-family="Times,serif" font-size="14.00">data 8.0000</text>
<polyline fill="none" stroke="black" points="815.75,-28 815.75,-63.5"/>
<text text-anchor="middle" x="856.38" y="-40.7" font-family="Times,serif" font-size="14.00">grad 0.0000</text>
</g>
<!-- 4834741904&#45;&gt;4833346640+ -->
<g id="edge13" class="edge">
<title>4834741904&#45;&gt;4833346640+</title>
<path fill="none" stroke="black" d="M896.95,-57.89C921.87,-61.29 947.48,-64.79 967.39,-67.51"/>
<polygon fill="black" stroke="black" points="966.74,-71.09 977.12,-68.97 967.69,-64.15 966.74,-71.09"/>
</g>
<!-- 4833361616 -->
<g id="node6" class="node">
<title>4833361616</title>
<polygon fill="none" stroke="black" points="668.25,-82.5 668.25,-118.5 942,-118.5 942,-82.5 668.25,-82.5"/>
<text text-anchor="middle" x="722.38" y="-95.7" font-family="Times,serif" font-size="14.00">x1*w1 + w2*w2</text>
<polyline fill="none" stroke="black" points="776.5,-83 776.5,-118.5"/>
<text text-anchor="middle" x="818.62" y="-95.7" font-family="Times,serif" font-size="14.00">data &#45;6.0000</text>
<polyline fill="none" stroke="black" points="860.75,-83 860.75,-118.5"/>
<text text-anchor="middle" x="901.38" y="-95.7" font-family="Times,serif" font-size="14.00">grad 0.0000</text>
</g>
<!-- 4833361616&#45;&gt;4833346640+ -->
<g id="edge6" class="edge">
<title>4833361616&#45;&gt;4833346640+</title>
<path fill="none" stroke="black" d="M933.12,-82.53C945.48,-80.78 957.2,-79.12 967.42,-77.68"/>
<polygon fill="black" stroke="black" points="967.87,-81.01 977.28,-76.14 966.89,-74.07 967.87,-81.01"/>
</g>
<!-- 4833361616+ -->
<g id="node7" class="node">
<title>4833361616+</title>
<ellipse fill="none" stroke="black" cx="605.25" cy="-100.5" rx="27" ry="18"/>
<text text-anchor="middle" x="605.25" y="-95.45" font-family="Times,serif" font-size="14.00">+</text>
</g>
<!-- 4833361616+&#45;&gt;4833361616 -->
<g id="edge2" class="edge">
<title>4833361616+&#45;&gt;4833361616</title>
<path fill="none" stroke="black" d="M632.53,-100.5C639.86,-100.5 648.38,-100.5 657.63,-100.5"/>
<polygon fill="black" stroke="black" points="657.35,-104 667.35,-100.5 657.35,-97 657.35,-104"/>
</g>
<!-- 4833348304 -->
<g id="node8" class="node">
<title>4833348304</title>
<polygon fill="none" stroke="black" points="326.25,-55.5 326.25,-91.5 540,-91.5 540,-55.5 326.25,-55.5"/>
<text text-anchor="middle" x="352.62" y="-68.7" font-family="Times,serif" font-size="14.00">x2*w2</text>
<polyline fill="none" stroke="black" points="379,-56 379,-91.5"/>
<text text-anchor="middle" x="418.88" y="-68.7" font-family="Times,serif" font-size="14.00">data 0.0000</text>
<polyline fill="none" stroke="black" points="458.75,-56 458.75,-91.5"/>
<text text-anchor="middle" x="499.38" y="-68.7" font-family="Times,serif" font-size="14.00">grad 0.0000</text>
</g>
<!-- 4833348304&#45;&gt;4833361616+ -->
<g id="edge14" class="edge">
<title>4833348304&#45;&gt;4833361616+</title>
<path fill="none" stroke="black" d="M539.93,-90.29C549.89,-91.87 559.45,-93.39 568.01,-94.75"/>
<polygon fill="black" stroke="black" points="567.21,-98.32 577.64,-96.43 568.31,-91.41 567.21,-98.32"/>
</g>
<!-- 4833348304*&#45;&gt;4833348304 -->
<g id="edge3" class="edge">
<title>4833348304*&#45;&gt;4833348304</title>
<path fill="none" stroke="black" d="M288.21,-73.5C296.23,-73.5 305.63,-73.5 315.71,-73.5"/>
<polygon fill="black" stroke="black" points="315.43,-77 325.43,-73.5 315.43,-70 315.43,-77"/>
</g>
<!-- 4834739152 -->
<g id="node10" class="node">
<title>4834739152</title>
<polygon fill="none" stroke="black" points="2.25,-0.5 2.25,-36.5 195.75,-36.5 195.75,-0.5 2.25,-0.5"/>
<text text-anchor="middle" x="18.5" y="-13.7" font-family="Times,serif" font-size="14.00">w2</text>
<polyline fill="none" stroke="black" points="34.75,-1 34.75,-36.5"/>
<text text-anchor="middle" x="74.62" y="-13.7" font-family="Times,serif" font-size="14.00">data 1.0000</text>
<polyline fill="none" stroke="black" points="114.5,-1 114.5,-36.5"/>
<text text-anchor="middle" x="155.12" y="-13.7" font-family="Times,serif" font-size="14.00">grad 0.0000</text>
</g>
<!-- 4834739152&#45;&gt;4833348304* -->
<g id="edge8" class="edge">
<title>4834739152&#45;&gt;4833348304*</title>
<path fill="none" stroke="black" d="M167.33,-36.46C177.67,-39.59 188.17,-42.97 198,-46.5 208.06,-50.11 218.81,-54.57 228.49,-58.82"/>
<polygon fill="black" stroke="black" points="226.92,-62.4 237.48,-63.29 229.78,-56.01 226.92,-62.4"/>
</g>
<!-- 4833353552 -->
<g id="node11" class="node">
<title>4833353552</title>
<polygon fill="none" stroke="black" points="1377.75,-54.5 1377.75,-90.5 1558.5,-90.5 1558.5,-54.5 1377.75,-54.5"/>
<text text-anchor="middle" x="1387.62" y="-67.7" font-family="Times,serif" font-size="14.00"> </text>
<polyline fill="none" stroke="black" points="1397.5,-55 1397.5,-90.5"/>
<text text-anchor="middle" x="1437.38" y="-67.7" font-family="Times,serif" font-size="14.00">data 0.9640</text>
<polyline fill="none" stroke="black" points="1477.25,-55 1477.25,-90.5"/>
<text text-anchor="middle" x="1517.88" y="-67.7" font-family="Times,serif" font-size="14.00">grad 0.0000</text>
</g>
<!-- 4833353552tanh&#45;&gt;4833353552 -->
<g id="edge4" class="edge">
<title>4833353552tanh&#45;&gt;4833353552</title>
<path fill="none" stroke="black" d="M1342.12,-72.5C1349.55,-72.5 1358.1,-72.5 1367.17,-72.5"/>
<polygon fill="black" stroke="black" points="1367.02,-76 1377.02,-72.5 1367.02,-69 1367.02,-76"/>
</g>
<!-- 4833354128 -->
<g id="node13" class="node">
<title>4833354128</title>
<polygon fill="none" stroke="black" points="324,-110.5 324,-146.5 542.25,-146.5 542.25,-110.5 324,-110.5"/>
<text text-anchor="middle" x="350.38" y="-123.7" font-family="Times,serif" font-size="14.00">x1*w1</text>
<polyline fill="none" stroke="black" points="376.75,-111 376.75,-146.5"/>
<text text-anchor="middle" x="418.88" y="-123.7" font-family="Times,serif" font-size="14.00">data &#45;6.0000</text>
<polyline fill="none" stroke="black" points="461,-111 461,-146.5"/>
<text text-anchor="middle" x="501.62" y="-123.7" font-family="Times,serif" font-size="14.00">grad 0.0000</text>
</g>
<!-- 4833354128&#45;&gt;4833361616+ -->
<g id="edge11" class="edge">
<title>4833354128&#45;&gt;4833361616+</title>
<path fill="none" stroke="black" d="M541.87,-110.77C551.1,-109.25 559.95,-107.79 567.93,-106.48"/>
<polygon fill="black" stroke="black" points="568.29,-109.8 577.59,-104.72 567.16,-102.89 568.29,-109.8"/>
</g>
<!-- 4833354128*&#45;&gt;4833354128 -->
<g id="edge5" class="edge">
<title>4833354128*&#45;&gt;4833354128</title>
<path fill="none" stroke="black" d="M288.21,-128.5C295.58,-128.5 304.1,-128.5 313.25,-128.5"/>
<polygon fill="black" stroke="black" points="313.24,-132 323.24,-128.5 313.24,-125 313.24,-132"/>
</g>
<!-- 4834750416 -->
<g id="node15" class="node">
<title>4834750416</title>
<polygon fill="none" stroke="black" points="0,-110.5 0,-146.5 198,-146.5 198,-110.5 0,-110.5"/>
<text text-anchor="middle" x="16.25" y="-123.7" font-family="Times,serif" font-size="14.00">w1</text>
<polyline fill="none" stroke="black" points="32.5,-111 32.5,-146.5"/>
<text text-anchor="middle" x="74.62" y="-123.7" font-family="Times,serif" font-size="14.00">data &#45;3.0000</text>
<polyline fill="none" stroke="black" points="116.75,-111 116.75,-146.5"/>
<text text-anchor="middle" x="157.38" y="-123.7" font-family="Times,serif" font-size="14.00">grad 0.0000</text>
</g>
<!-- 4834750416&#45;&gt;4833354128* -->
<g id="edge7" class="edge">
<title>4834750416&#45;&gt;4833354128*</title>
<path fill="none" stroke="black" d="M197.68,-128.5C206.51,-128.5 215.04,-128.5 222.8,-128.5"/>
<polygon fill="black" stroke="black" points="222.58,-132 232.58,-128.5 222.58,-125 222.58,-132"/>
</g>
</g>
</svg>
