<?xml version="1.0" encoding="UTF-8" standalone="no"?>
<!DOCTYPE svg PUBLIC "-//W3C//DTD SVG 1.1//EN"
 "http://www.w3.org/Graphics/SVG/1.1/DTD/svg11.dtd">
<!-- Generated by graphviz version 8.0.5 (20230430.1635)
 -->
<!-- Pages: 1 -->
<svg width="1140pt" height="154pt"
 viewBox="0.00 0.00 1139.75 154.00" xmlns="http://www.w3.org/2000/svg" xmlns:xlink="http://www.w3.org/1999/xlink">
<g id="graph0" class="graph" transform="scale(1 1) rotate(0) translate(4 150)">
<polygon fill="white" stroke="none" points="-4,4 -4,-150 1135.75,-150 1135.75,4 -4,4"/>
<!-- 4834588688 -->
<g id="node1" class="node">
<title>4834588688</title>
<polygon fill="none" stroke="black" points="315.38,-27.5 315.38,-63.5 502.88,-63.5 502.88,-27.5 315.38,-27.5"/>
<text text-anchor="middle" x="326.38" y="-40.7" font-family="Times,serif" font-size="14.00">e</text>
<polyline fill="none" stroke="black" points="337.38,-28 337.38,-63.5"/>
<text text-anchor="middle" x="379.5" y="-40.7" font-family="Times,serif" font-size="14.00">data &#45;6.0000</text>
<polyline fill="none" stroke="black" points="421.62,-28 421.62,-63.5"/>
<text text-anchor="middle" x="462.25" y="-40.7" font-family="Times,serif" font-size="14.00">grad 0.0000</text>
</g>
<!-- 4834586768+ -->
<g id="node4" class="node">
<title>4834586768+</title>
<ellipse fill="none" stroke="black" cx="567" cy="-72.5" rx="27" ry="18"/>
<text text-anchor="middle" x="567" y="-67.45" font-family="Times,serif" font-size="14.00">+</text>
</g>
<!-- 4834588688&#45;&gt;4834586768+ -->
<g id="edge6" class="edge">
<title>4834588688&#45;&gt;4834586768+</title>
<path fill="none" stroke="black" d="M502.6,-61.52C512.15,-63.17 521.41,-64.78 529.76,-66.22"/>
<polygon fill="black" stroke="black" points="529.07,-69.83 539.52,-68.09 530.27,-62.93 529.07,-69.83"/>
</g>
<!-- 4834588688* -->
<g id="node2" class="node">
<title>4834588688*</title>
<ellipse fill="none" stroke="black" cx="251.25" cy="-45.5" rx="27" ry="18"/>
<text text-anchor="middle" x="251.25" y="-40.45" font-family="Times,serif" font-size="14.00">*</text>
</g>
<!-- 4834588688*&#45;&gt;4834588688 -->
<g id="edge1" class="edge">
<title>4834588688*&#45;&gt;4834588688</title>
<path fill="none" stroke="black" d="M278.69,-45.5C286.39,-45.5 295.3,-45.5 304.78,-45.5"/>
<polygon fill="black" stroke="black" points="304.68,-49 314.68,-45.5 304.68,-42 304.68,-49"/>
</g>
<!-- 4834586768 -->
<g id="node3" class="node">
<title>4834586768</title>
<polygon fill="none" stroke="black" points="631.12,-54.5 631.12,-90.5 814.88,-90.5 814.88,-54.5 631.12,-54.5"/>
<text text-anchor="middle" x="642.5" y="-67.7" font-family="Times,serif" font-size="14.00">d</text>
<polyline fill="none" stroke="black" points="653.88,-55 653.88,-90.5"/>
<text text-anchor="middle" x="693.75" y="-67.7" font-family="Times,serif" font-size="14.00">data 4.0000</text>
<polyline fill="none" stroke="black" points="733.62,-55 733.62,-90.5"/>
<text text-anchor="middle" x="774.25" y="-67.7" font-family="Times,serif" font-size="14.00">grad 0.0000</text>
</g>
<!-- 4834589136* -->
<g id="node7" class="node">
<title>4834589136*</title>
<ellipse fill="none" stroke="black" cx="879" cy="-99.5" rx="27" ry="18"/>
<text text-anchor="middle" x="879" y="-94.45" font-family="Times,serif" font-size="14.00">*</text>
</g>
<!-- 4834586768&#45;&gt;4834589136* -->
<g id="edge7" class="edge">
<title>4834586768&#45;&gt;4834589136*</title>
<path fill="none" stroke="black" d="M814.47,-88.36C824.02,-90.04 833.27,-91.66 841.63,-93.12"/>
<polygon fill="black" stroke="black" points="840.97,-96.74 851.42,-95.02 842.18,-89.84 840.97,-96.74"/>
</g>
<!-- 4834586768+&#45;&gt;4834586768 -->
<g id="edge2" class="edge">
<title>4834586768+&#45;&gt;4834586768</title>
<path fill="none" stroke="black" d="M594.47,-72.5C602.16,-72.5 611.05,-72.5 620.48,-72.5"/>
<polygon fill="black" stroke="black" points="620.33,-76 630.33,-72.5 620.33,-69 620.33,-76"/>
</g>
<!-- 4834526928 -->
<g id="node5" class="node">
<title>4834526928</title>
<polygon fill="none" stroke="black" points="0,-55.5 0,-91.5 188.25,-91.5 188.25,-55.5 0,-55.5"/>
<text text-anchor="middle" x="11.38" y="-68.7" font-family="Times,serif" font-size="14.00">b</text>
<polyline fill="none" stroke="black" points="22.75,-56 22.75,-91.5"/>
<text text-anchor="middle" x="64.88" y="-68.7" font-family="Times,serif" font-size="14.00">data &#45;3.0000</text>
<polyline fill="none" stroke="black" points="107,-56 107,-91.5"/>
<text text-anchor="middle" x="147.62" y="-68.7" font-family="Times,serif" font-size="14.00">grad 0.0000</text>
</g>
<!-- 4834526928&#45;&gt;4834588688* -->
<g id="edge8" class="edge">
<title>4834526928&#45;&gt;4834588688*</title>
<path fill="none" stroke="black" d="M188.05,-56.73C197.17,-55.08 206,-53.49 214,-52.04"/>
<polygon fill="black" stroke="black" points="214.48,-55.33 223.7,-50.11 213.24,-48.44 214.48,-55.33"/>
</g>
<!-- 4834589136 -->
<g id="node6" class="node">
<title>4834589136</title>
<polygon fill="none" stroke="black" points="942,-81.5 942,-117.5 1131.75,-117.5 1131.75,-81.5 942,-81.5"/>
<text text-anchor="middle" x="954.12" y="-94.7" font-family="Times,serif" font-size="14.00">L</text>
<polyline fill="none" stroke="black" points="966.25,-82 966.25,-117.5"/>
<text text-anchor="middle" x="1008.38" y="-94.7" font-family="Times,serif" font-size="14.00">data &#45;8.0000</text>
<polyline fill="none" stroke="black" points="1050.5,-82 1050.5,-117.5"/>
<text text-anchor="middle" x="1091.12" y="-94.7" font-family="Times,serif" font-size="14.00">grad 0.0000</text>
</g>
<!-- 4834589136*&#45;&gt;4834589136 -->
<g id="edge3" class="edge">
<title>4834589136*&#45;&gt;4834589136</title>
<path fill="none" stroke="black" d="M906.44,-99.5C913.81,-99.5 922.29,-99.5 931.31,-99.5"/>
<polygon fill="black" stroke="black" points="931.11,-103 941.11,-99.5 931.11,-96 931.11,-103"/>
</g>
<!-- 4834585296 -->
<g id="node8" class="node">
<title>4834585296</title>
<polygon fill="none" stroke="black" points="314.25,-82.5 314.25,-118.5 504,-118.5 504,-82.5 314.25,-82.5"/>
<text text-anchor="middle" x="325.25" y="-95.7" font-family="Times,serif" font-size="14.00">c</text>
<polyline fill="none" stroke="black" points="336.25,-83 336.25,-118.5"/>
<text text-anchor="middle" x="379.5" y="-95.7" font-family="Times,serif" font-size="14.00">data 10.0000</text>
<polyline fill="none" stroke="black" points="422.75,-83 422.75,-118.5"/>
<text text-anchor="middle" x="463.38" y="-95.7" font-family="Times,serif" font-size="14.00">grad 0.0000</text>
</g>
<!-- 4834585296&#45;&gt;4834586768+ -->
<g id="edge5" class="edge">
<title>4834585296&#45;&gt;4834586768+</title>
<path fill="none" stroke="black" d="M503.95,-83.65C513.06,-82.01 521.87,-80.43 529.86,-78.99"/>
<polygon fill="black" stroke="black" points="530.31,-82.29 539.53,-77.07 529.07,-75.4 530.31,-82.29"/>
</g>
<!-- 4834580752 -->
<g id="node9" class="node">
<title>4834580752</title>
<polygon fill="none" stroke="black" points="630,-109.5 630,-145.5 816,-145.5 816,-109.5 630,-109.5"/>
<text text-anchor="middle" x="640.25" y="-122.7" font-family="Times,serif" font-size="14.00">f</text>
<polyline fill="none" stroke="black" points="650.5,-110 650.5,-145.5"/>
<text text-anchor="middle" x="692.62" y="-122.7" font-family="Times,serif" font-size="14.00">data &#45;2.0000</text>
<polyline fill="none" stroke="black" points="734.75,-110 734.75,-145.5"/>
<text text-anchor="middle" x="775.38" y="-122.7" font-family="Times,serif" font-size="14.00">grad 0.0000</text>
</g>
<!-- 4834580752&#45;&gt;4834589136* -->
<g id="edge4" class="edge">
<title>4834580752&#45;&gt;4834589136*</title>
<path fill="none" stroke="black" d="M815.81,-110.81C824.91,-109.15 833.73,-107.55 841.73,-106.09"/>
<polygon fill="black" stroke="black" points="842.22,-109.38 851.43,-104.15 840.96,-102.49 842.22,-109.38"/>
</g>
<!-- 4833107920 -->
<g id="node10" class="node">
<title>4833107920</title>
<polygon fill="none" stroke="black" points="2.62,-0.5 2.62,-36.5 185.62,-36.5 185.62,-0.5 2.62,-0.5"/>
<text text-anchor="middle" x="13.62" y="-13.7" font-family="Times,serif" font-size="14.00">a</text>
<polyline fill="none" stroke="black" points="24.62,-1 24.62,-36.5"/>
<text text-anchor="middle" x="64.5" y="-13.7" font-family="Times,serif" font-size="14.00">data 2.0000</text>
<polyline fill="none" stroke="black" points="104.38,-1 104.38,-36.5"/>
<text text-anchor="middle" x="145" y="-13.7" font-family="Times,serif" font-size="14.00">grad 0.0000</text>
</g>
<!-- 4833107920&#45;&gt;4834588688* -->
<g id="edge9" class="edge">
<title>4833107920&#45;&gt;4834588688*</title>
<path fill="none" stroke="black" d="M185.36,-34.21C195.48,-35.97 205.31,-37.68 214.13,-39.21"/>
<polygon fill="black" stroke="black" points="213.25,-42.79 223.7,-41.05 214.45,-35.89 213.25,-42.79"/>
</g>
</g>
</svg>
