<?xml version="1.0" encoding="UTF-8" standalone="no"?>
<!DOCTYPE svg PUBLIC "-//W3C//DTD SVG 1.1//EN"
 "http://www.w3.org/Graphics/SVG/1.1/DTD/svg11.dtd">
<!-- Generated by graphviz version 8.0.5 (20230430.1635)
 -->
<!-- Pages: 1 -->
<svg width="1142pt" height="128pt"
 viewBox="0.00 0.00 1142.00 128.00" xmlns="http://www.w3.org/2000/svg" xmlns:xlink="http://www.w3.org/1999/xlink">
<g id="graph0" class="graph" transform="scale(1 1) rotate(0) translate(4 124)">
<polygon fill="white" stroke="none" points="-4,4 -4,-124 1138,-124 1138,4 -4,4"/>
<!-- 4833655312 -->
<g id="node1" class="node">
<title>4833655312</title>
<polygon fill="none" stroke="black" points="314.25,-83.5 314.25,-119.5 504,-119.5 504,-83.5 314.25,-83.5"/>
<text text-anchor="middle" x="325.25" y="-96.7" font-family="Times,serif" font-size="14.00">c</text>
<polyline fill="none" stroke="black" points="336.25,-84 336.25,-119.5"/>
<text text-anchor="middle" x="379.5" y="-96.7" font-family="Times,serif" font-size="14.00">data 10.0000</text>
<polyline fill="none" stroke="black" points="422.75,-84 422.75,-119.5"/>
<text text-anchor="middle" x="463.38" y="-96.7" font-family="Times,serif" font-size="14.00">grad 0.0000</text>
</g>
<!-- 4833645712+ -->
<g id="node7" class="node">
<title>4833645712+</title>
<ellipse fill="none" stroke="black" cx="567" cy="-73.5" rx="27" ry="18"/>
<text text-anchor="middle" x="567" y="-68.45" font-family="Times,serif" font-size="14.00">+</text>
</g>
<!-- 4833655312&#45;&gt;4833645712+ -->
<g id="edge7" class="edge">
<title>4833655312&#45;&gt;4833645712+</title>
<path fill="none" stroke="black" d="M503.95,-84.65C513.06,-83.01 521.87,-81.43 529.86,-79.99"/>
<polygon fill="black" stroke="black" points="530.31,-83.29 539.53,-78.07 529.07,-76.4 530.31,-83.29"/>
</g>
<!-- 4833646096 -->
<g id="node2" class="node">
<title>4833646096</title>
<polygon fill="none" stroke="black" points="631.12,-0.5 631.12,-36.5 817.12,-36.5 817.12,-0.5 631.12,-0.5"/>
<text text-anchor="middle" x="641.38" y="-13.7" font-family="Times,serif" font-size="14.00">f</text>
<polyline fill="none" stroke="black" points="651.62,-1 651.62,-36.5"/>
<text text-anchor="middle" x="693.75" y="-13.7" font-family="Times,serif" font-size="14.00">data &#45;2.0000</text>
<polyline fill="none" stroke="black" points="735.88,-1 735.88,-36.5"/>
<text text-anchor="middle" x="776.5" y="-13.7" font-family="Times,serif" font-size="14.00">grad 4.0000</text>
</g>
<!-- 4833652944* -->
<g id="node9" class="node">
<title>4833652944*</title>
<ellipse fill="none" stroke="black" cx="881.25" cy="-45.5" rx="27" ry="18"/>
<text text-anchor="middle" x="881.25" y="-40.45" font-family="Times,serif" font-size="14.00">*</text>
</g>
<!-- 4833646096&#45;&gt;4833652944* -->
<g id="edge9" class="edge">
<title>4833646096&#45;&gt;4833652944*</title>
<path fill="none" stroke="black" d="M816.71,-34.44C826.27,-36.1 835.53,-37.72 843.9,-39.17"/>
<polygon fill="black" stroke="black" points="843.24,-42.78 853.69,-41.05 844.44,-35.89 843.24,-42.78"/>
</g>
<!-- 4833653328 -->
<g id="node3" class="node">
<title>4833653328</title>
<polygon fill="none" stroke="black" points="315.38,-28.5 315.38,-64.5 502.88,-64.5 502.88,-28.5 315.38,-28.5"/>
<text text-anchor="middle" x="326.38" y="-41.7" font-family="Times,serif" font-size="14.00">e</text>
<polyline fill="none" stroke="black" points="337.38,-29 337.38,-64.5"/>
<text text-anchor="middle" x="379.5" y="-41.7" font-family="Times,serif" font-size="14.00">data &#45;6.0000</text>
<polyline fill="none" stroke="black" points="421.62,-29 421.62,-64.5"/>
<text text-anchor="middle" x="462.25" y="-41.7" font-family="Times,serif" font-size="14.00">grad 0.0000</text>
</g>
<!-- 4833653328&#45;&gt;4833645712+ -->
<g id="edge8" class="edge">
<title>4833653328&#45;&gt;4833645712+</title>
<path fill="none" stroke="black" d="M502.6,-62.52C512.15,-64.17 521.41,-65.78 529.76,-67.22"/>
<polygon fill="black" stroke="black" points="529.07,-70.83 539.52,-69.09 530.27,-63.93 529.07,-70.83"/>
</g>
<!-- 4833653328* -->
<g id="node4" class="node">
<title>4833653328*</title>
<ellipse fill="none" stroke="black" cx="251.25" cy="-46.5" rx="27" ry="18"/>
<text text-anchor="middle" x="251.25" y="-41.45" font-family="Times,serif" font-size="14.00">*</text>
</g>
<!-- 4833653328*&#45;&gt;4833653328 -->
<g id="edge1" class="edge">
<title>4833653328*&#45;&gt;4833653328</title>
<path fill="none" stroke="black" d="M278.69,-46.5C286.39,-46.5 295.3,-46.5 304.78,-46.5"/>
<polygon fill="black" stroke="black" points="304.68,-50 314.68,-46.5 304.68,-43 304.68,-50"/>
</g>
<!-- 4832460880 -->
<g id="node5" class="node">
<title>4832460880</title>
<polygon fill="none" stroke="black" points="0,-56.5 0,-92.5 188.25,-92.5 188.25,-56.5 0,-56.5"/>
<text text-anchor="middle" x="11.38" y="-69.7" font-family="Times,serif" font-size="14.00">b</text>
<polyline fill="none" stroke="black" points="22.75,-57 22.75,-92.5"/>
<text text-anchor="middle" x="64.88" y="-69.7" font-family="Times,serif" font-size="14.00">data &#45;3.0000</text>
<polyline fill="none" stroke="black" points="107,-57 107,-92.5"/>
<text text-anchor="middle" x="147.62" y="-69.7" font-family="Times,serif" font-size="14.00">grad 0.0000</text>
</g>
<!-- 4832460880&#45;&gt;4833653328* -->
<g id="edge6" class="edge">
<title>4832460880&#45;&gt;4833653328*</title>
<path fill="none" stroke="black" d="M188.05,-57.73C197.17,-56.08 206,-54.49 214,-53.04"/>
<polygon fill="black" stroke="black" points="214.48,-56.33 223.7,-51.11 213.24,-49.44 214.48,-56.33"/>
</g>
<!-- 4833645712 -->
<g id="node6" class="node">
<title>4833645712</title>
<polygon fill="none" stroke="black" points="630,-55.5 630,-91.5 818.25,-91.5 818.25,-55.5 630,-55.5"/>
<text text-anchor="middle" x="641.38" y="-68.7" font-family="Times,serif" font-size="14.00">d</text>
<polyline fill="none" stroke="black" points="652.75,-56 652.75,-91.5"/>
<text text-anchor="middle" x="692.62" y="-68.7" font-family="Times,serif" font-size="14.00">data 4.0000</text>
<polyline fill="none" stroke="black" points="732.5,-56 732.5,-91.5"/>
<text text-anchor="middle" x="775.38" y="-68.7" font-family="Times,serif" font-size="14.00">grad &#45;2.0000</text>
</g>
<!-- 4833645712&#45;&gt;4833652944* -->
<g id="edge5" class="edge">
<title>4833645712&#45;&gt;4833652944*</title>
<path fill="none" stroke="black" d="M818.05,-56.73C827.17,-55.08 836,-53.49 844,-52.04"/>
<polygon fill="black" stroke="black" points="844.48,-55.33 853.7,-50.11 843.24,-48.44 844.48,-55.33"/>
</g>
<!-- 4833645712+&#45;&gt;4833645712 -->
<g id="edge2" class="edge">
<title>4833645712+&#45;&gt;4833645712</title>
<path fill="none" stroke="black" d="M594.31,-73.5C601.71,-73.5 610.23,-73.5 619.29,-73.5"/>
<polygon fill="black" stroke="black" points="619.14,-77 629.14,-73.5 619.14,-70 619.14,-77"/>
</g>
<!-- 4833652944 -->
<g id="node8" class="node">
<title>4833652944</title>
<polygon fill="none" stroke="black" points="944.25,-27.5 944.25,-63.5 1134,-63.5 1134,-27.5 944.25,-27.5"/>
<text text-anchor="middle" x="956.38" y="-40.7" font-family="Times,serif" font-size="14.00">L</text>
<polyline fill="none" stroke="black" points="968.5,-28 968.5,-63.5"/>
<text text-anchor="middle" x="1010.62" y="-40.7" font-family="Times,serif" font-size="14.00">data &#45;8.0000</text>
<polyline fill="none" stroke="black" points="1052.75,-28 1052.75,-63.5"/>
<text text-anchor="middle" x="1093.38" y="-40.7" font-family="Times,serif" font-size="14.00">grad 1.0000</text>
</g>
<!-- 4833652944*&#45;&gt;4833652944 -->
<g id="edge3" class="edge">
<title>4833652944*&#45;&gt;4833652944</title>
<path fill="none" stroke="black" d="M908.69,-45.5C916.06,-45.5 924.54,-45.5 933.56,-45.5"/>
<polygon fill="black" stroke="black" points="933.36,-49 943.36,-45.5 933.36,-42 933.36,-49"/>
</g>
<!-- 4832106384 -->
<g id="node10" class="node">
<title>4832106384</title>
<polygon fill="none" stroke="black" points="2.62,-1.5 2.62,-37.5 185.62,-37.5 185.62,-1.5 2.62,-1.5"/>
<text text-anchor="middle" x="13.62" y="-14.7" font-family="Times,serif" font-size="14.00">a</text>
<polyline fill="none" stroke="black" points="24.62,-2 24.62,-37.5"/>
<text text-anchor="middle" x="64.5" y="-14.7" font-family="Times,serif" font-size="14.00">data 2.0000</text>
<polyline fill="none" stroke="black" points="104.38,-2 104.38,-37.5"/>
<text text-anchor="middle" x="145" y="-14.7" font-family="Times,serif" font-size="14.00">grad 0.0000</text>
</g>
<!-- 4832106384&#45;&gt;4833653328* -->
<g id="edge4" class="edge">
<title>4832106384&#45;&gt;4833653328*</title>
<path fill="none" stroke="black" d="M185.36,-35.21C195.48,-36.97 205.31,-38.68 214.13,-40.21"/>
<polygon fill="black" stroke="black" points="213.25,-43.79 223.7,-42.05 214.45,-36.89 213.25,-43.79"/>
</g>
</g>
</svg>
