<?xml version="1.0" encoding="UTF-8" standalone="no"?>
<!DOCTYPE svg PUBLIC "-//W3C//DTD SVG 1.1//EN"
 "http://www.w3.org/Graphics/SVG/1.1/DTD/svg11.dtd">
<!-- Generated by graphviz version 8.0.5 (20230430.1635)
 -->
<!-- Pages: 1 -->
<svg width="511pt" height="127pt"
 viewBox="0.00 0.00 510.50 127.00" xmlns="http://www.w3.org/2000/svg" xmlns:xlink="http://www.w3.org/1999/xlink">
<g id="graph0" class="graph" transform="scale(1 1) rotate(0) translate(4 123)">
<polygon fill="white" stroke="none" points="-4,4 -4,-123 506.5,-123 506.5,4 -4,4"/>
<!-- 4655573520 -->
<g id="node1" class="node">
<title>4655573520</title>
<polygon fill="none" stroke="black" points="210.25,-82.5 210.25,-118.5 296.75,-118.5 296.75,-82.5 210.25,-82.5"/>
<text text-anchor="middle" x="253.5" y="-95.7" font-family="Times,serif" font-size="14.00">data 10.0000</text>
</g>
<!-- 4655435344+ -->
<g id="node3" class="node">
<title>4655435344+</title>
<ellipse fill="none" stroke="black" cx="359.75" cy="-72.5" rx="27" ry="18"/>
<text text-anchor="middle" x="359.75" y="-67.45" font-family="Times,serif" font-size="14.00">+</text>
</g>
<!-- 4655573520&#45;&gt;4655435344+ -->
<g id="edge5" class="edge">
<title>4655573520&#45;&gt;4655435344+</title>
<path fill="none" stroke="black" d="M296.6,-89.19C305.58,-86.78 314.97,-84.26 323.66,-81.93"/>
<polygon fill="black" stroke="black" points="324.44,-85.07 333.19,-79.1 322.63,-78.31 324.44,-85.07"/>
</g>
<!-- 4655435344 -->
<g id="node2" class="node">
<title>4655435344</title>
<polygon fill="none" stroke="black" points="422.75,-54.5 422.75,-90.5 502.5,-90.5 502.5,-54.5 422.75,-54.5"/>
<text text-anchor="middle" x="462.62" y="-67.7" font-family="Times,serif" font-size="14.00">data 4.0000</text>
</g>
<!-- 4655435344+&#45;&gt;4655435344 -->
<g id="edge1" class="edge">
<title>4655435344+&#45;&gt;4655435344</title>
<path fill="none" stroke="black" d="M386.99,-72.5C394.71,-72.5 403.41,-72.5 412.09,-72.5"/>
<polygon fill="black" stroke="black" points="411.97,-76 421.97,-72.5 411.97,-69 411.97,-76"/>
</g>
<!-- 4655576912 -->
<g id="node4" class="node">
<title>4655576912</title>
<polygon fill="none" stroke="black" points="0,-55.5 0,-91.5 84.25,-91.5 84.25,-55.5 0,-55.5"/>
<text text-anchor="middle" x="42.12" y="-68.7" font-family="Times,serif" font-size="14.00">data &#45;3.0000</text>
</g>
<!-- 4655573328* -->
<g id="node6" class="node">
<title>4655573328*</title>
<ellipse fill="none" stroke="black" cx="147.25" cy="-45.5" rx="27" ry="18"/>
<text text-anchor="middle" x="147.25" y="-40.45" font-family="Times,serif" font-size="14.00">*</text>
</g>
<!-- 4655576912&#45;&gt;4655573328* -->
<g id="edge6" class="edge">
<title>4655576912&#45;&gt;4655573328*</title>
<path fill="none" stroke="black" d="M84.18,-62.35C93.1,-59.93 102.47,-57.39 111.14,-55.03"/>
<polygon fill="black" stroke="black" points="111.93,-58.17 120.67,-52.17 110.1,-51.42 111.93,-58.17"/>
</g>
<!-- 4655573328 -->
<g id="node5" class="node">
<title>4655573328</title>
<polygon fill="none" stroke="black" points="211.38,-27.5 211.38,-63.5 295.62,-63.5 295.62,-27.5 211.38,-27.5"/>
<text text-anchor="middle" x="253.5" y="-40.7" font-family="Times,serif" font-size="14.00">data &#45;6.0000</text>
</g>
<!-- 4655573328&#45;&gt;4655435344+ -->
<g id="edge4" class="edge">
<title>4655573328&#45;&gt;4655435344+</title>
<path fill="none" stroke="black" d="M295.4,-56.09C304.73,-58.51 314.56,-61.06 323.62,-63.4"/>
<polygon fill="black" stroke="black" points="322.65,-67.02 333.21,-66.14 324.41,-60.25 322.65,-67.02"/>
</g>
<!-- 4655573328*&#45;&gt;4655573328 -->
<g id="edge2" class="edge">
<title>4655573328*&#45;&gt;4655573328</title>
<path fill="none" stroke="black" d="M174.56,-45.5C182.53,-45.5 191.59,-45.5 200.63,-45.5"/>
<polygon fill="black" stroke="black" points="200.59,-49 210.59,-45.5 200.59,-42 200.59,-49"/>
</g>
<!-- 4655575888 -->
<g id="node7" class="node">
<title>4655575888</title>
<polygon fill="none" stroke="black" points="2.25,-0.5 2.25,-36.5 82,-36.5 82,-0.5 2.25,-0.5"/>
<text text-anchor="middle" x="42.12" y="-13.7" font-family="Times,serif" font-size="14.00">data 2.0000</text>
</g>
<!-- 4655575888&#45;&gt;4655573328* -->
<g id="edge3" class="edge">
<title>4655575888&#45;&gt;4655573328*</title>
<path fill="none" stroke="black" d="M81.82,-28.63C91.43,-31.15 101.68,-33.83 111.11,-36.3"/>
<polygon fill="black" stroke="black" points="110.16,-39.93 120.72,-39.08 111.93,-33.16 110.16,-39.93"/>
</g>
</g>
</svg>
