<?xml version="1.0" encoding="UTF-8" standalone="no"?>
<!DOCTYPE svg PUBLIC "-//W3C//DTD SVG 1.1//EN"
 "http://www.w3.org/Graphics/SVG/1.1/DTD/svg11.dtd">
<!-- Generated by graphviz version 8.0.5 (20230430.1635)
 -->
<!-- Pages: 1 -->
<svg width="826pt" height="100pt"
 viewBox="0.00 0.00 826.25 100.00" xmlns="http://www.w3.org/2000/svg" xmlns:xlink="http://www.w3.org/1999/xlink">
<g id="graph0" class="graph" transform="scale(1 1) rotate(0) translate(4 96)">
<polygon fill="white" stroke="none" points="-4,4 -4,-96 822.25,-96 822.25,4 -4,4"/>
<!-- 4830006288 -->
<g id="node1" class="node">
<title>4830006288</title>
<polygon fill="none" stroke="black" points="318.38,-55.5 318.38,-91.5 505.88,-91.5 505.88,-55.5 318.38,-55.5"/>
<text text-anchor="middle" x="329.38" y="-68.7" font-family="Times,serif" font-size="14.00">e</text>
<polyline fill="none" stroke="black" points="340.38,-56 340.38,-91.5"/>
<text text-anchor="middle" x="380.25" y="-68.7" font-family="Times,serif" font-size="14.00">data 1.0000</text>
<polyline fill="none" stroke="black" points="420.12,-56 420.12,-91.5"/>
<text text-anchor="middle" x="463" y="-68.7" font-family="Times,serif" font-size="14.00">grad &#45;6.0000</text>
</g>
<!-- 4830003920* -->
<g id="node8" class="node">
<title>4830003920*</title>
<ellipse fill="none" stroke="black" cx="569.25" cy="-45.5" rx="27" ry="18"/>
<text text-anchor="middle" x="569.25" y="-40.45" font-family="Times,serif" font-size="14.00">*</text>
</g>
<!-- 4830006288&#45;&gt;4830003920* -->
<g id="edge9" class="edge">
<title>4830006288&#45;&gt;4830003920*</title>
<path fill="none" stroke="black" d="M505.6,-56.81C514.97,-55.12 524.04,-53.48 532.23,-52"/>
<polygon fill="black" stroke="black" points="532.58,-55.32 541.8,-50.09 531.33,-48.43 532.58,-55.32"/>
</g>
<!-- 4830006288+ -->
<g id="node2" class="node">
<title>4830006288+</title>
<ellipse fill="none" stroke="black" cx="255" cy="-73.5" rx="27" ry="18"/>
<text text-anchor="middle" x="255" y="-68.45" font-family="Times,serif" font-size="14.00">+</text>
</g>
<!-- 4830006288+&#45;&gt;4830006288 -->
<g id="edge1" class="edge">
<title>4830006288+&#45;&gt;4830006288</title>
<path fill="none" stroke="black" d="M282.31,-73.5C289.77,-73.5 298.37,-73.5 307.52,-73.5"/>
<polygon fill="black" stroke="black" points="307.47,-77 317.47,-73.5 307.47,-70 307.47,-77"/>
</g>
<!-- 4832104976 -->
<g id="node3" class="node">
<title>4832104976</title>
<polygon fill="none" stroke="black" points="1.88,-55.5 1.88,-91.5 190.12,-91.5 190.12,-55.5 1.88,-55.5"/>
<text text-anchor="middle" x="13.25" y="-68.7" font-family="Times,serif" font-size="14.00">b</text>
<polyline fill="none" stroke="black" points="24.62,-56 24.62,-91.5"/>
<text text-anchor="middle" x="64.5" y="-68.7" font-family="Times,serif" font-size="14.00">data 3.0000</text>
<polyline fill="none" stroke="black" points="104.38,-56 104.38,-91.5"/>
<text text-anchor="middle" x="147.25" y="-68.7" font-family="Times,serif" font-size="14.00">grad &#45;8.0000</text>
</g>
<!-- 4832104976&#45;&gt;4830006288+ -->
<g id="edge8" class="edge">
<title>4832104976&#45;&gt;4830006288+</title>
<path fill="none" stroke="black" d="M189.69,-73.5C199.18,-73.5 208.39,-73.5 216.73,-73.5"/>
<polygon fill="black" stroke="black" points="216.51,-77 226.51,-73.5 216.51,-70 216.51,-77"/>
</g>
<!-- 4831786640* -->
<g id="node6" class="node">
<title>4831786640*</title>
<ellipse fill="none" stroke="black" cx="255" cy="-18.5" rx="27" ry="18"/>
<text text-anchor="middle" x="255" y="-13.45" font-family="Times,serif" font-size="14.00">*</text>
</g>
<!-- 4832104976&#45;&gt;4831786640* -->
<g id="edge5" class="edge">
<title>4832104976&#45;&gt;4831786640*</title>
<path fill="none" stroke="black" d="M164.86,-55.54C174.05,-52.72 183.3,-49.68 192,-46.5 202.21,-42.77 213.09,-38.1 222.84,-33.65"/>
<polygon fill="black" stroke="black" points="223.93,-36.54 231.52,-29.14 220.98,-30.19 223.93,-36.54"/>
</g>
<!-- 4832110672 -->
<g id="node4" class="node">
<title>4832110672</title>
<polygon fill="none" stroke="black" points="0,-0.5 0,-36.5 192,-36.5 192,-0.5 0,-0.5"/>
<text text-anchor="middle" x="11" y="-13.7" font-family="Times,serif" font-size="14.00">a</text>
<polyline fill="none" stroke="black" points="22,-1 22,-36.5"/>
<text text-anchor="middle" x="64.12" y="-13.7" font-family="Times,serif" font-size="14.00">data &#45;2.0000</text>
<polyline fill="none" stroke="black" points="106.25,-1 106.25,-36.5"/>
<text text-anchor="middle" x="149.12" y="-13.7" font-family="Times,serif" font-size="14.00">grad &#45;3.0000</text>
</g>
<!-- 4832110672&#45;&gt;4830006288+ -->
<g id="edge7" class="edge">
<title>4832110672&#45;&gt;4830006288+</title>
<path fill="none" stroke="black" d="M161.99,-36.49C172.11,-39.62 182.38,-43 192,-46.5 201.97,-50.12 212.62,-54.55 222.23,-58.76"/>
<polygon fill="black" stroke="black" points="220.62,-62.32 231.17,-63.2 223.47,-55.93 220.62,-62.32"/>
</g>
<!-- 4832110672&#45;&gt;4831786640* -->
<g id="edge6" class="edge">
<title>4832110672&#45;&gt;4831786640*</title>
<path fill="none" stroke="black" d="M191.95,-18.5C200.71,-18.5 209.19,-18.5 216.92,-18.5"/>
<polygon fill="black" stroke="black" points="216.65,-22 226.65,-18.5 216.65,-15 216.65,-22"/>
</g>
<!-- 4831786640 -->
<g id="node5" class="node">
<title>4831786640</title>
<polygon fill="none" stroke="black" points="318,-0.5 318,-36.5 506.25,-36.5 506.25,-0.5 318,-0.5"/>
<text text-anchor="middle" x="329.38" y="-13.7" font-family="Times,serif" font-size="14.00">d</text>
<polyline fill="none" stroke="black" points="340.75,-1 340.75,-36.5"/>
<text text-anchor="middle" x="382.88" y="-13.7" font-family="Times,serif" font-size="14.00">data &#45;6.0000</text>
<polyline fill="none" stroke="black" points="425,-1 425,-36.5"/>
<text text-anchor="middle" x="465.62" y="-13.7" font-family="Times,serif" font-size="14.00">grad 1.0000</text>
</g>
<!-- 4831786640&#45;&gt;4830003920* -->
<g id="edge4" class="edge">
<title>4831786640&#45;&gt;4830003920*</title>
<path fill="none" stroke="black" d="M506.05,-34.67C515.17,-36.26 524,-37.8 532,-39.19"/>
<polygon fill="black" stroke="black" points="531.25,-42.79 541.7,-41.05 532.45,-35.89 531.25,-42.79"/>
</g>
<!-- 4831786640*&#45;&gt;4831786640 -->
<g id="edge2" class="edge">
<title>4831786640*&#45;&gt;4831786640</title>
<path fill="none" stroke="black" d="M282.31,-18.5C289.71,-18.5 298.23,-18.5 307.29,-18.5"/>
<polygon fill="black" stroke="black" points="307.14,-22 317.14,-18.5 307.14,-15 307.14,-22"/>
</g>
<!-- 4830003920 -->
<g id="node7" class="node">
<title>4830003920</title>
<polygon fill="none" stroke="black" points="632.25,-27.5 632.25,-63.5 818.25,-63.5 818.25,-27.5 632.25,-27.5"/>
<text text-anchor="middle" x="642.5" y="-40.7" font-family="Times,serif" font-size="14.00">f</text>
<polyline fill="none" stroke="black" points="652.75,-28 652.75,-63.5"/>
<text text-anchor="middle" x="694.88" y="-40.7" font-family="Times,serif" font-size="14.00">data &#45;6.0000</text>
<polyline fill="none" stroke="black" points="737,-28 737,-63.5"/>
<text text-anchor="middle" x="777.62" y="-40.7" font-family="Times,serif" font-size="14.00">grad 1.0000</text>
</g>
<!-- 4830003920*&#45;&gt;4830003920 -->
<g id="edge3" class="edge">
<title>4830003920*&#45;&gt;4830003920</title>
<path fill="none" stroke="black" d="M596.72,-45.5C604.08,-45.5 612.54,-45.5 621.52,-45.5"/>
<polygon fill="black" stroke="black" points="621.28,-49 631.28,-45.5 621.28,-42 621.28,-49"/>
</g>
</g>
</svg>
