<?xml version="1.0" encoding="UTF-8" standalone="no"?>
<!DOCTYPE svg PUBLIC "-//W3C//DTD SVG 1.1//EN"
 "http://www.w3.org/Graphics/SVG/1.1/DTD/svg11.dtd">
<!-- Generated by graphviz version 8.0.5 (20230430.1635)
 -->
<!-- Pages: 1 -->
<svg width="1151pt" height="128pt"
 viewBox="0.00 0.00 1151.00 128.00" xmlns="http://www.w3.org/2000/svg" xmlns:xlink="http://www.w3.org/1999/xlink">
<g id="graph0" class="graph" transform="scale(1 1) rotate(0) translate(4 124)">
<polygon fill="white" stroke="none" points="-4,4 -4,-124 1147,-124 1147,4 -4,4"/>
<!-- 4833655312 -->
<g id="node1" class="node">
<title>4833655312</title>
<polygon fill="none" stroke="black" points="318.75,-83.5 318.75,-119.5 513,-119.5 513,-83.5 318.75,-83.5"/>
<text text-anchor="middle" x="329.75" y="-96.7" font-family="Times,serif" font-size="14.00">c</text>
<polyline fill="none" stroke="black" points="340.75,-84 340.75,-119.5"/>
<text text-anchor="middle" x="384" y="-96.7" font-family="Times,serif" font-size="14.00">data 10.0000</text>
<polyline fill="none" stroke="black" points="427.25,-84 427.25,-119.5"/>
<text text-anchor="middle" x="470.12" y="-96.7" font-family="Times,serif" font-size="14.00">grad &#45;2.0000</text>
</g>
<!-- 4833645712+ -->
<g id="node7" class="node">
<title>4833645712+</title>
<ellipse fill="none" stroke="black" cx="576" cy="-73.5" rx="27" ry="18"/>
<text text-anchor="middle" x="576" y="-68.45" font-family="Times,serif" font-size="14.00">+</text>
</g>
<!-- 4833655312&#45;&gt;4833645712+ -->
<g id="edge7" class="edge">
<title>4833655312&#45;&gt;4833645712+</title>
<path fill="none" stroke="black" d="M512.96,-84.49C522.1,-82.87 530.93,-81.3 538.91,-79.89"/>
<polygon fill="black" stroke="black" points="539.35,-83.19 548.58,-78 538.13,-76.3 539.35,-83.19"/>
</g>
<!-- 4833646096 -->
<g id="node2" class="node">
<title>4833646096</title>
<polygon fill="none" stroke="black" points="640.12,-0.5 640.12,-36.5 826.12,-36.5 826.12,-0.5 640.12,-0.5"/>
<text text-anchor="middle" x="650.38" y="-13.7" font-family="Times,serif" font-size="14.00">f</text>
<polyline fill="none" stroke="black" points="660.62,-1 660.62,-36.5"/>
<text text-anchor="middle" x="702.75" y="-13.7" font-family="Times,serif" font-size="14.00">data &#45;2.0000</text>
<polyline fill="none" stroke="black" points="744.88,-1 744.88,-36.5"/>
<text text-anchor="middle" x="785.5" y="-13.7" font-family="Times,serif" font-size="14.00">grad 4.0000</text>
</g>
<!-- 4833652944* -->
<g id="node9" class="node">
<title>4833652944*</title>
<ellipse fill="none" stroke="black" cx="890.25" cy="-45.5" rx="27" ry="18"/>
<text text-anchor="middle" x="890.25" y="-40.45" font-family="Times,serif" font-size="14.00">*</text>
</g>
<!-- 4833646096&#45;&gt;4833652944* -->
<g id="edge9" class="edge">
<title>4833646096&#45;&gt;4833652944*</title>
<path fill="none" stroke="black" d="M825.71,-34.44C835.27,-36.1 844.53,-37.72 852.9,-39.17"/>
<polygon fill="black" stroke="black" points="852.24,-42.78 862.69,-41.05 853.44,-35.89 852.24,-42.78"/>
</g>
<!-- 4833653328 -->
<g id="node3" class="node">
<title>4833653328</title>
<polygon fill="none" stroke="black" points="319.88,-28.5 319.88,-64.5 511.88,-64.5 511.88,-28.5 319.88,-28.5"/>
<text text-anchor="middle" x="330.88" y="-41.7" font-family="Times,serif" font-size="14.00">e</text>
<polyline fill="none" stroke="black" points="341.88,-29 341.88,-64.5"/>
<text text-anchor="middle" x="384" y="-41.7" font-family="Times,serif" font-size="14.00">data &#45;6.0000</text>
<polyline fill="none" stroke="black" points="426.12,-29 426.12,-64.5"/>
<text text-anchor="middle" x="469" y="-41.7" font-family="Times,serif" font-size="14.00">grad &#45;2.0000</text>
</g>
<!-- 4833653328&#45;&gt;4833645712+ -->
<g id="edge8" class="edge">
<title>4833653328&#45;&gt;4833645712+</title>
<path fill="none" stroke="black" d="M511.6,-62.67C521.18,-64.31 530.45,-65.89 538.8,-67.32"/>
<polygon fill="black" stroke="black" points="538.12,-70.92 548.57,-69.16 539.3,-64.02 538.12,-70.92"/>
</g>
<!-- 4833653328* -->
<g id="node4" class="node">
<title>4833653328*</title>
<ellipse fill="none" stroke="black" cx="255.75" cy="-46.5" rx="27" ry="18"/>
<text text-anchor="middle" x="255.75" y="-41.45" font-family="Times,serif" font-size="14.00">*</text>
</g>
<!-- 4833653328*&#45;&gt;4833653328 -->
<g id="edge1" class="edge">
<title>4833653328*&#45;&gt;4833653328</title>
<path fill="none" stroke="black" d="M283.22,-46.5C290.88,-46.5 299.75,-46.5 309.2,-46.5"/>
<polygon fill="black" stroke="black" points="309.08,-50 319.08,-46.5 309.08,-43 309.08,-50"/>
</g>
<!-- 4832460880 -->
<g id="node5" class="node">
<title>4832460880</title>
<polygon fill="none" stroke="black" points="0,-56.5 0,-92.5 192.75,-92.5 192.75,-56.5 0,-56.5"/>
<text text-anchor="middle" x="11.38" y="-69.7" font-family="Times,serif" font-size="14.00">b</text>
<polyline fill="none" stroke="black" points="22.75,-57 22.75,-92.5"/>
<text text-anchor="middle" x="64.88" y="-69.7" font-family="Times,serif" font-size="14.00">data &#45;3.0000</text>
<polyline fill="none" stroke="black" points="107,-57 107,-92.5"/>
<text text-anchor="middle" x="149.88" y="-69.7" font-family="Times,serif" font-size="14.00">grad &#45;4.0000</text>
</g>
<!-- 4832460880&#45;&gt;4833653328* -->
<g id="edge6" class="edge">
<title>4832460880&#45;&gt;4833653328*</title>
<path fill="none" stroke="black" d="M192.55,-57.57C201.7,-55.94 210.54,-54.37 218.55,-52.94"/>
<polygon fill="black" stroke="black" points="219.01,-56.24 228.25,-51.04 217.79,-49.34 219.01,-56.24"/>
</g>
<!-- 4833645712 -->
<g id="node6" class="node">
<title>4833645712</title>
<polygon fill="none" stroke="black" points="639,-55.5 639,-91.5 827.25,-91.5 827.25,-55.5 639,-55.5"/>
<text text-anchor="middle" x="650.38" y="-68.7" font-family="Times,serif" font-size="14.00">d</text>
<polyline fill="none" stroke="black" points="661.75,-56 661.75,-91.5"/>
<text text-anchor="middle" x="701.62" y="-68.7" font-family="Times,serif" font-size="14.00">data 4.0000</text>
<polyline fill="none" stroke="black" points="741.5,-56 741.5,-91.5"/>
<text text-anchor="middle" x="784.38" y="-68.7" font-family="Times,serif" font-size="14.00">grad &#45;2.0000</text>
</g>
<!-- 4833645712&#45;&gt;4833652944* -->
<g id="edge5" class="edge">
<title>4833645712&#45;&gt;4833652944*</title>
<path fill="none" stroke="black" d="M827.05,-56.73C836.17,-55.08 845,-53.49 853,-52.04"/>
<polygon fill="black" stroke="black" points="853.48,-55.33 862.7,-50.11 852.24,-48.44 853.48,-55.33"/>
</g>
<!-- 4833645712+&#45;&gt;4833645712 -->
<g id="edge2" class="edge">
<title>4833645712+&#45;&gt;4833645712</title>
<path fill="none" stroke="black" d="M603.31,-73.5C610.71,-73.5 619.23,-73.5 628.29,-73.5"/>
<polygon fill="black" stroke="black" points="628.14,-77 638.14,-73.5 628.14,-70 628.14,-77"/>
</g>
<!-- 4833652944 -->
<g id="node8" class="node">
<title>4833652944</title>
<polygon fill="none" stroke="black" points="953.25,-27.5 953.25,-63.5 1143,-63.5 1143,-27.5 953.25,-27.5"/>
<text text-anchor="middle" x="965.38" y="-40.7" font-family="Times,serif" font-size="14.00">L</text>
<polyline fill="none" stroke="black" points="977.5,-28 977.5,-63.5"/>
<text text-anchor="middle" x="1019.62" y="-40.7" font-family="Times,serif" font-size="14.00">data &#45;8.0000</text>
<polyline fill="none" stroke="black" points="1061.75,-28 1061.75,-63.5"/>
<text text-anchor="middle" x="1102.38" y="-40.7" font-family="Times,serif" font-size="14.00">grad 1.0000</text>
</g>
<!-- 4833652944*&#45;&gt;4833652944 -->
<g id="edge3" class="edge">
<title>4833652944*&#45;&gt;4833652944</title>
<path fill="none" stroke="black" d="M917.69,-45.5C925.06,-45.5 933.54,-45.5 942.56,-45.5"/>
<polygon fill="black" stroke="black" points="942.36,-49 952.36,-45.5 942.36,-42 942.36,-49"/>
</g>
<!-- 4832106384 -->
<g id="node10" class="node">
<title>4832106384</title>
<polygon fill="none" stroke="black" points="4.88,-1.5 4.88,-37.5 187.88,-37.5 187.88,-1.5 4.88,-1.5"/>
<text text-anchor="middle" x="15.88" y="-14.7" font-family="Times,serif" font-size="14.00">a</text>
<polyline fill="none" stroke="black" points="26.88,-2 26.88,-37.5"/>
<text text-anchor="middle" x="66.75" y="-14.7" font-family="Times,serif" font-size="14.00">data 2.0000</text>
<polyline fill="none" stroke="black" points="106.62,-2 106.62,-37.5"/>
<text text-anchor="middle" x="147.25" y="-14.7" font-family="Times,serif" font-size="14.00">grad 6.0000</text>
</g>
<!-- 4832106384&#45;&gt;4833653328* -->
<g id="edge4" class="edge">
<title>4832106384&#45;&gt;4833653328*</title>
<path fill="none" stroke="black" d="M187.55,-34.97C198.39,-36.83 208.93,-38.64 218.33,-40.25"/>
<polygon fill="black" stroke="black" points="217.72,-43.87 228.17,-42.11 218.91,-36.97 217.72,-43.87"/>
</g>
</g>
</svg>
