<?xml version="1.0" encoding="UTF-8" standalone="no"?>
<!DOCTYPE svg PUBLIC "-//W3C//DTD SVG 1.1//EN"
 "http://www.w3.org/Graphics/SVG/1.1/DTD/svg11.dtd">
<!-- Generated by graphviz version 8.0.5 (20230430.1635)
 -->
<!-- Pages: 1 -->
<svg width="1147pt" height="128pt"
 viewBox="0.00 0.00 1146.50 128.00" xmlns="http://www.w3.org/2000/svg" xmlns:xlink="http://www.w3.org/1999/xlink">
<g id="graph0" class="graph" transform="scale(1 1) rotate(0) translate(4 124)">
<polygon fill="white" stroke="none" points="-4,4 -4,-124 1142.5,-124 1142.5,4 -4,4"/>
<!-- 4833655312 -->
<g id="node1" class="node">
<title>4833655312</title>
<polygon fill="none" stroke="black" points="314.25,-83.5 314.25,-119.5 508.5,-119.5 508.5,-83.5 314.25,-83.5"/>
<text text-anchor="middle" x="325.25" y="-96.7" font-family="Times,serif" font-size="14.00">c</text>
<polyline fill="none" stroke="black" points="336.25,-84 336.25,-119.5"/>
<text text-anchor="middle" x="379.5" y="-96.7" font-family="Times,serif" font-size="14.00">data 10.0000</text>
<polyline fill="none" stroke="black" points="422.75,-84 422.75,-119.5"/>
<text text-anchor="middle" x="465.62" y="-96.7" font-family="Times,serif" font-size="14.00">grad &#45;2.0000</text>
</g>
<!-- 4833645712+ -->
<g id="node7" class="node">
<title>4833645712+</title>
<ellipse fill="none" stroke="black" cx="571.5" cy="-73.5" rx="27" ry="18"/>
<text text-anchor="middle" x="571.5" y="-68.45" font-family="Times,serif" font-size="14.00">+</text>
</g>
<!-- 4833655312&#45;&gt;4833645712+ -->
<g id="edge7" class="edge">
<title>4833655312&#45;&gt;4833645712+</title>
<path fill="none" stroke="black" d="M508.46,-84.49C517.6,-82.87 526.43,-81.3 534.41,-79.89"/>
<polygon fill="black" stroke="black" points="534.85,-83.19 544.08,-78 533.63,-76.3 534.85,-83.19"/>
</g>
<!-- 4833646096 -->
<g id="node2" class="node">
<title>4833646096</title>
<polygon fill="none" stroke="black" points="635.62,-0.5 635.62,-36.5 821.62,-36.5 821.62,-0.5 635.62,-0.5"/>
<text text-anchor="middle" x="645.88" y="-13.7" font-family="Times,serif" font-size="14.00">f</text>
<polyline fill="none" stroke="black" points="656.12,-1 656.12,-36.5"/>
<text text-anchor="middle" x="698.25" y="-13.7" font-family="Times,serif" font-size="14.00">data &#45;2.0000</text>
<polyline fill="none" stroke="black" points="740.38,-1 740.38,-36.5"/>
<text text-anchor="middle" x="781" y="-13.7" font-family="Times,serif" font-size="14.00">grad 4.0000</text>
</g>
<!-- 4833652944* -->
<g id="node9" class="node">
<title>4833652944*</title>
<ellipse fill="none" stroke="black" cx="885.75" cy="-45.5" rx="27" ry="18"/>
<text text-anchor="middle" x="885.75" y="-40.45" font-family="Times,serif" font-size="14.00">*</text>
</g>
<!-- 4833646096&#45;&gt;4833652944* -->
<g id="edge9" class="edge">
<title>4833646096&#45;&gt;4833652944*</title>
<path fill="none" stroke="black" d="M821.21,-34.44C830.77,-36.1 840.03,-37.72 848.4,-39.17"/>
<polygon fill="black" stroke="black" points="847.74,-42.78 858.19,-41.05 848.94,-35.89 847.74,-42.78"/>
</g>
<!-- 4833653328 -->
<g id="node3" class="node">
<title>4833653328</title>
<polygon fill="none" stroke="black" points="315.38,-28.5 315.38,-64.5 507.38,-64.5 507.38,-28.5 315.38,-28.5"/>
<text text-anchor="middle" x="326.38" y="-41.7" font-family="Times,serif" font-size="14.00">e</text>
<polyline fill="none" stroke="black" points="337.38,-29 337.38,-64.5"/>
<text text-anchor="middle" x="379.5" y="-41.7" font-family="Times,serif" font-size="14.00">data &#45;6.0000</text>
<polyline fill="none" stroke="black" points="421.62,-29 421.62,-64.5"/>
<text text-anchor="middle" x="464.5" y="-41.7" font-family="Times,serif" font-size="14.00">grad &#45;2.0000</text>
</g>
<!-- 4833653328&#45;&gt;4833645712+ -->
<g id="edge8" class="edge">
<title>4833653328&#45;&gt;4833645712+</title>
<path fill="none" stroke="black" d="M507.1,-62.67C516.68,-64.31 525.95,-65.89 534.3,-67.32"/>
<polygon fill="black" stroke="black" points="533.62,-70.92 544.07,-69.16 534.8,-64.02 533.62,-70.92"/>
</g>
<!-- 4833653328* -->
<g id="node4" class="node">
<title>4833653328*</title>
<ellipse fill="none" stroke="black" cx="251.25" cy="-46.5" rx="27" ry="18"/>
<text text-anchor="middle" x="251.25" y="-41.45" font-family="Times,serif" font-size="14.00">*</text>
</g>
<!-- 4833653328*&#45;&gt;4833653328 -->
<g id="edge1" class="edge">
<title>4833653328*&#45;&gt;4833653328</title>
<path fill="none" stroke="black" d="M278.72,-46.5C286.38,-46.5 295.25,-46.5 304.7,-46.5"/>
<polygon fill="black" stroke="black" points="304.58,-50 314.58,-46.5 304.58,-43 304.58,-50"/>
</g>
<!-- 4832460880 -->
<g id="node5" class="node">
<title>4832460880</title>
<polygon fill="none" stroke="black" points="0,-56.5 0,-92.5 188.25,-92.5 188.25,-56.5 0,-56.5"/>
<text text-anchor="middle" x="11.38" y="-69.7" font-family="Times,serif" font-size="14.00">b</text>
<polyline fill="none" stroke="black" points="22.75,-57 22.75,-92.5"/>
<text text-anchor="middle" x="64.88" y="-69.7" font-family="Times,serif" font-size="14.00">data &#45;3.0000</text>
<polyline fill="none" stroke="black" points="107,-57 107,-92.5"/>
<text text-anchor="middle" x="147.62" y="-69.7" font-family="Times,serif" font-size="14.00">grad 0.0000</text>
</g>
<!-- 4832460880&#45;&gt;4833653328* -->
<g id="edge6" class="edge">
<title>4832460880&#45;&gt;4833653328*</title>
<path fill="none" stroke="black" d="M188.05,-57.73C197.17,-56.08 206,-54.49 214,-53.04"/>
<polygon fill="black" stroke="black" points="214.48,-56.33 223.7,-51.11 213.24,-49.44 214.48,-56.33"/>
</g>
<!-- 4833645712 -->
<g id="node6" class="node">
<title>4833645712</title>
<polygon fill="none" stroke="black" points="634.5,-55.5 634.5,-91.5 822.75,-91.5 822.75,-55.5 634.5,-55.5"/>
<text text-anchor="middle" x="645.88" y="-68.7" font-family="Times,serif" font-size="14.00">d</text>
<polyline fill="none" stroke="black" points="657.25,-56 657.25,-91.5"/>
<text text-anchor="middle" x="697.12" y="-68.7" font-family="Times,serif" font-size="14.00">data 4.0000</text>
<polyline fill="none" stroke="black" points="737,-56 737,-91.5"/>
<text text-anchor="middle" x="779.88" y="-68.7" font-family="Times,serif" font-size="14.00">grad &#45;2.0000</text>
</g>
<!-- 4833645712&#45;&gt;4833652944* -->
<g id="edge5" class="edge">
<title>4833645712&#45;&gt;4833652944*</title>
<path fill="none" stroke="black" d="M822.55,-56.73C831.67,-55.08 840.5,-53.49 848.5,-52.04"/>
<polygon fill="black" stroke="black" points="848.98,-55.33 858.2,-50.11 847.74,-48.44 848.98,-55.33"/>
</g>
<!-- 4833645712+&#45;&gt;4833645712 -->
<g id="edge2" class="edge">
<title>4833645712+&#45;&gt;4833645712</title>
<path fill="none" stroke="black" d="M598.81,-73.5C606.21,-73.5 614.73,-73.5 623.79,-73.5"/>
<polygon fill="black" stroke="black" points="623.64,-77 633.64,-73.5 623.64,-70 623.64,-77"/>
</g>
<!-- 4833652944 -->
<g id="node8" class="node">
<title>4833652944</title>
<polygon fill="none" stroke="black" points="948.75,-27.5 948.75,-63.5 1138.5,-63.5 1138.5,-27.5 948.75,-27.5"/>
<text text-anchor="middle" x="960.88" y="-40.7" font-family="Times,serif" font-size="14.00">L</text>
<polyline fill="none" stroke="black" points="973,-28 973,-63.5"/>
<text text-anchor="middle" x="1015.12" y="-40.7" font-family="Times,serif" font-size="14.00">data &#45;8.0000</text>
<polyline fill="none" stroke="black" points="1057.25,-28 1057.25,-63.5"/>
<text text-anchor="middle" x="1097.88" y="-40.7" font-family="Times,serif" font-size="14.00">grad 1.0000</text>
</g>
<!-- 4833652944*&#45;&gt;4833652944 -->
<g id="edge3" class="edge">
<title>4833652944*&#45;&gt;4833652944</title>
<path fill="none" stroke="black" d="M913.19,-45.5C920.56,-45.5 929.04,-45.5 938.06,-45.5"/>
<polygon fill="black" stroke="black" points="937.86,-49 947.86,-45.5 937.86,-42 937.86,-49"/>
</g>
<!-- 4832106384 -->
<g id="node10" class="node">
<title>4832106384</title>
<polygon fill="none" stroke="black" points="2.62,-1.5 2.62,-37.5 185.62,-37.5 185.62,-1.5 2.62,-1.5"/>
<text text-anchor="middle" x="13.62" y="-14.7" font-family="Times,serif" font-size="14.00">a</text>
<polyline fill="none" stroke="black" points="24.62,-2 24.62,-37.5"/>
<text text-anchor="middle" x="64.5" y="-14.7" font-family="Times,serif" font-size="14.00">data 2.0000</text>
<polyline fill="none" stroke="black" points="104.38,-2 104.38,-37.5"/>
<text text-anchor="middle" x="145" y="-14.7" font-family="Times,serif" font-size="14.00">grad 0.0000</text>
</g>
<!-- 4832106384&#45;&gt;4833653328* -->
<g id="edge4" class="edge">
<title>4832106384&#45;&gt;4833653328*</title>
<path fill="none" stroke="black" d="M185.36,-35.21C195.48,-36.97 205.31,-38.68 214.13,-40.21"/>
<polygon fill="black" stroke="black" points="213.25,-43.79 223.7,-42.05 214.45,-36.89 213.25,-43.79"/>
</g>
</g>
</svg>
