<?xml version="1.0" encoding="UTF-8" standalone="no"?>
<!DOCTYPE svg PUBLIC "-//W3C//DTD SVG 1.1//EN"
 "http://www.w3.org/Graphics/SVG/1.1/DTD/svg11.dtd">
<!-- Generated by graphviz version 8.0.5 (20230430.1635)
 -->
<!-- Pages: 1 -->
<svg width="1567pt" height="210pt"
 viewBox="0.00 0.00 1566.50 210.00" xmlns="http://www.w3.org/2000/svg" xmlns:xlink="http://www.w3.org/1999/xlink">
<g id="graph0" class="graph" transform="scale(1 1) rotate(0) translate(4 206)">
<polygon fill="white" stroke="none" points="-4,4 -4,-206 1562.5,-206 1562.5,4 -4,4"/>
<!-- 4834516496 -->
<g id="node1" class="node">
<title>4834516496</title>
<polygon fill="none" stroke="black" points="711.75,-137.5 711.75,-173.5 895.5,-173.5 895.5,-137.5 711.75,-137.5"/>
<text text-anchor="middle" x="723.12" y="-150.7" font-family="Times,serif" font-size="14.00">b</text>
<polyline fill="none" stroke="black" points="734.5,-138 734.5,-173.5"/>
<text text-anchor="middle" x="774.38" y="-150.7" font-family="Times,serif" font-size="14.00">data 6.8814</text>
<polyline fill="none" stroke="black" points="814.25,-138 814.25,-173.5"/>
<text text-anchor="middle" x="854.88" y="-150.7" font-family="Times,serif" font-size="14.00">grad 0.5000</text>
</g>
<!-- 4834523600+ -->
<g id="node6" class="node">
<title>4834523600+</title>
<ellipse fill="none" stroke="black" cx="1002" cy="-127.5" rx="27" ry="18"/>
<text text-anchor="middle" x="1002" y="-122.45" font-family="Times,serif" font-size="14.00">+</text>
</g>
<!-- 4834516496&#45;&gt;4834523600+ -->
<g id="edge7" class="edge">
<title>4834516496&#45;&gt;4834523600+</title>
<path fill="none" stroke="black" d="M895.34,-142.57C919.7,-139.09 944.68,-135.53 964.23,-132.74"/>
<polygon fill="black" stroke="black" points="964.66,-136.07 974.07,-131.2 963.68,-129.14 964.66,-136.07"/>
</g>
<!-- 4834515984 -->
<g id="node2" class="node">
<title>4834515984</title>
<polygon fill="none" stroke="black" points="0,-55.5 0,-91.5 198,-91.5 198,-55.5 0,-55.5"/>
<text text-anchor="middle" x="16.25" y="-68.7" font-family="Times,serif" font-size="14.00">w1</text>
<polyline fill="none" stroke="black" points="32.5,-56 32.5,-91.5"/>
<text text-anchor="middle" x="74.62" y="-68.7" font-family="Times,serif" font-size="14.00">data &#45;3.0000</text>
<polyline fill="none" stroke="black" points="116.75,-56 116.75,-91.5"/>
<text text-anchor="middle" x="157.38" y="-68.7" font-family="Times,serif" font-size="14.00">grad 0.0000</text>
</g>
<!-- 4834523984* -->
<g id="node12" class="node">
<title>4834523984*</title>
<ellipse fill="none" stroke="black" cx="261" cy="-73.5" rx="27" ry="18"/>
<text text-anchor="middle" x="261" y="-68.45" font-family="Times,serif" font-size="14.00">*</text>
</g>
<!-- 4834515984&#45;&gt;4834523984* -->
<g id="edge9" class="edge">
<title>4834515984&#45;&gt;4834523984*</title>
<path fill="none" stroke="black" d="M197.68,-73.5C206.51,-73.5 215.04,-73.5 222.8,-73.5"/>
<polygon fill="black" stroke="black" points="222.58,-77 232.58,-73.5 222.58,-70 222.58,-77"/>
</g>
<!-- 4834522832 -->
<g id="node3" class="node">
<title>4834522832</title>
<polygon fill="none" stroke="black" points="1374.75,-109.5 1374.75,-145.5 1558.5,-145.5 1558.5,-109.5 1374.75,-109.5"/>
<text text-anchor="middle" x="1386.12" y="-122.7" font-family="Times,serif" font-size="14.00">o</text>
<polyline fill="none" stroke="black" points="1397.5,-110 1397.5,-145.5"/>
<text text-anchor="middle" x="1437.38" y="-122.7" font-family="Times,serif" font-size="14.00">data 0.7071</text>
<polyline fill="none" stroke="black" points="1477.25,-110 1477.25,-145.5"/>
<text text-anchor="middle" x="1517.88" y="-122.7" font-family="Times,serif" font-size="14.00">grad 1.0000</text>
</g>
<!-- 4834522832tanh -->
<g id="node4" class="node">
<title>4834522832tanh</title>
<ellipse fill="none" stroke="black" cx="1311.75" cy="-127.5" rx="27" ry="18"/>
<text text-anchor="middle" x="1311.75" y="-122.45" font-family="Times,serif" font-size="14.00">tanh</text>
</g>
<!-- 4834522832tanh&#45;&gt;4834522832 -->
<g id="edge1" class="edge">
<title>4834522832tanh&#45;&gt;4834522832</title>
<path fill="none" stroke="black" d="M1339.03,-127.5C1346.45,-127.5 1355.01,-127.5 1364.1,-127.5"/>
<polygon fill="black" stroke="black" points="1363.97,-131 1373.97,-127.5 1363.97,-124 1363.97,-131"/>
</g>
<!-- 4834523600 -->
<g id="node5" class="node">
<title>4834523600</title>
<polygon fill="none" stroke="black" points="1065,-109.5 1065,-145.5 1248.75,-145.5 1248.75,-109.5 1065,-109.5"/>
<text text-anchor="middle" x="1076.38" y="-122.7" font-family="Times,serif" font-size="14.00">n</text>
<polyline fill="none" stroke="black" points="1087.75,-110 1087.75,-145.5"/>
<text text-anchor="middle" x="1127.62" y="-122.7" font-family="Times,serif" font-size="14.00">data 0.8814</text>
<polyline fill="none" stroke="black" points="1167.5,-110 1167.5,-145.5"/>
<text text-anchor="middle" x="1208.12" y="-122.7" font-family="Times,serif" font-size="14.00">grad 0.5000</text>
</g>
<!-- 4834523600&#45;&gt;4834522832tanh -->
<g id="edge12" class="edge">
<title>4834523600&#45;&gt;4834522832tanh</title>
<path fill="none" stroke="black" d="M1248.57,-127.5C1257.3,-127.5 1265.76,-127.5 1273.5,-127.5"/>
<polygon fill="black" stroke="black" points="1273.25,-131 1283.25,-127.5 1273.25,-124 1273.25,-131"/>
</g>
<!-- 4834523600+&#45;&gt;4834523600 -->
<g id="edge2" class="edge">
<title>4834523600+&#45;&gt;4834523600</title>
<path fill="none" stroke="black" d="M1029.28,-127.5C1036.7,-127.5 1045.26,-127.5 1054.35,-127.5"/>
<polygon fill="black" stroke="black" points="1054.22,-131 1064.22,-127.5 1054.22,-124 1054.22,-131"/>
</g>
<!-- 4834519248 -->
<g id="node7" class="node">
<title>4834519248</title>
<polygon fill="none" stroke="black" points="3.75,-165.5 3.75,-201.5 194.25,-201.5 194.25,-165.5 3.75,-165.5"/>
<text text-anchor="middle" x="18.5" y="-178.7" font-family="Times,serif" font-size="14.00">x2</text>
<polyline fill="none" stroke="black" points="33.25,-166 33.25,-201.5"/>
<text text-anchor="middle" x="73.12" y="-178.7" font-family="Times,serif" font-size="14.00">data 0.0000</text>
<polyline fill="none" stroke="black" points="113,-166 113,-201.5"/>
<text text-anchor="middle" x="153.62" y="-178.7" font-family="Times,serif" font-size="14.00">grad 0.5000</text>
</g>
<!-- 4834509648* -->
<g id="node9" class="node">
<title>4834509648*</title>
<ellipse fill="none" stroke="black" cx="261" cy="-128.5" rx="27" ry="18"/>
<text text-anchor="middle" x="261" y="-123.45" font-family="Times,serif" font-size="14.00">*</text>
</g>
<!-- 4834519248&#45;&gt;4834509648* -->
<g id="edge6" class="edge">
<title>4834519248&#45;&gt;4834509648*</title>
<path fill="none" stroke="black" d="M170.28,-165.56C179.67,-162.75 189.12,-159.71 198,-156.5 208.31,-152.78 219.28,-148.08 229.1,-143.59"/>
<polygon fill="black" stroke="black" points="230.24,-146.46 237.82,-139.05 227.28,-140.11 230.24,-146.46"/>
</g>
<!-- 4834509648 -->
<g id="node8" class="node">
<title>4834509648</title>
<polygon fill="none" stroke="black" points="326.25,-110.5 326.25,-146.5 540,-146.5 540,-110.5 326.25,-110.5"/>
<text text-anchor="middle" x="352.62" y="-123.7" font-family="Times,serif" font-size="14.00">x2*w2</text>
<polyline fill="none" stroke="black" points="379,-111 379,-146.5"/>
<text text-anchor="middle" x="418.88" y="-123.7" font-family="Times,serif" font-size="14.00">data 0.0000</text>
<polyline fill="none" stroke="black" points="458.75,-111 458.75,-146.5"/>
<text text-anchor="middle" x="499.38" y="-123.7" font-family="Times,serif" font-size="14.00">grad 0.5000</text>
</g>
<!-- 4834524624+ -->
<g id="node15" class="node">
<title>4834524624+</title>
<ellipse fill="none" stroke="black" cx="605.25" cy="-100.5" rx="27" ry="18"/>
<text text-anchor="middle" x="605.25" y="-95.45" font-family="Times,serif" font-size="14.00">+</text>
</g>
<!-- 4834509648&#45;&gt;4834524624+ -->
<g id="edge11" class="edge">
<title>4834509648&#45;&gt;4834524624+</title>
<path fill="none" stroke="black" d="M539.93,-111.09C549.89,-109.45 559.45,-107.87 568.01,-106.46"/>
<polygon fill="black" stroke="black" points="568.34,-109.79 577.64,-104.72 567.2,-102.89 568.34,-109.79"/>
</g>
<!-- 4834509648*&#45;&gt;4834509648 -->
<g id="edge3" class="edge">
<title>4834509648*&#45;&gt;4834509648</title>
<path fill="none" stroke="black" d="M288.21,-128.5C296.23,-128.5 305.63,-128.5 315.71,-128.5"/>
<polygon fill="black" stroke="black" points="315.43,-132 325.43,-128.5 315.43,-125 315.43,-132"/>
</g>
<!-- 4834519888 -->
<g id="node10" class="node">
<title>4834519888</title>
<polygon fill="none" stroke="black" points="2.25,-110.5 2.25,-146.5 195.75,-146.5 195.75,-110.5 2.25,-110.5"/>
<text text-anchor="middle" x="18.5" y="-123.7" font-family="Times,serif" font-size="14.00">w2</text>
<polyline fill="none" stroke="black" points="34.75,-111 34.75,-146.5"/>
<text text-anchor="middle" x="74.62" y="-123.7" font-family="Times,serif" font-size="14.00">data 1.0000</text>
<polyline fill="none" stroke="black" points="114.5,-111 114.5,-146.5"/>
<text text-anchor="middle" x="155.12" y="-123.7" font-family="Times,serif" font-size="14.00">grad 0.0000</text>
</g>
<!-- 4834519888&#45;&gt;4834509648* -->
<g id="edge8" class="edge">
<title>4834519888&#45;&gt;4834509648*</title>
<path fill="none" stroke="black" d="M195.38,-128.5C205.05,-128.5 214.4,-128.5 222.84,-128.5"/>
<polygon fill="black" stroke="black" points="222.75,-132 232.75,-128.5 222.75,-125 222.75,-132"/>
</g>
<!-- 4834523984 -->
<g id="node11" class="node">
<title>4834523984</title>
<polygon fill="none" stroke="black" points="324,-55.5 324,-91.5 542.25,-91.5 542.25,-55.5 324,-55.5"/>
<text text-anchor="middle" x="350.38" y="-68.7" font-family="Times,serif" font-size="14.00">x1*w1</text>
<polyline fill="none" stroke="black" points="376.75,-56 376.75,-91.5"/>
<text text-anchor="middle" x="418.88" y="-68.7" font-family="Times,serif" font-size="14.00">data &#45;6.0000</text>
<polyline fill="none" stroke="black" points="461,-56 461,-91.5"/>
<text text-anchor="middle" x="501.62" y="-68.7" font-family="Times,serif" font-size="14.00">grad 0.5000</text>
</g>
<!-- 4834523984&#45;&gt;4834524624+ -->
<g id="edge13" class="edge">
<title>4834523984&#45;&gt;4834524624+</title>
<path fill="none" stroke="black" d="M541.87,-90.6C551.1,-92.06 559.95,-93.47 567.93,-94.74"/>
<polygon fill="black" stroke="black" points="567.17,-98.32 577.59,-96.43 568.27,-91.4 567.17,-98.32"/>
</g>
<!-- 4834523984*&#45;&gt;4834523984 -->
<g id="edge4" class="edge">
<title>4834523984*&#45;&gt;4834523984</title>
<path fill="none" stroke="black" d="M288.21,-73.5C295.58,-73.5 304.1,-73.5 313.25,-73.5"/>
<polygon fill="black" stroke="black" points="313.24,-77 323.24,-73.5 313.24,-70 313.24,-77"/>
</g>
<!-- 4834519440 -->
<g id="node13" class="node">
<title>4834519440</title>
<polygon fill="none" stroke="black" points="3.75,-0.5 3.75,-36.5 194.25,-36.5 194.25,-0.5 3.75,-0.5"/>
<text text-anchor="middle" x="18.5" y="-13.7" font-family="Times,serif" font-size="14.00">x1</text>
<polyline fill="none" stroke="black" points="33.25,-1 33.25,-36.5"/>
<text text-anchor="middle" x="73.12" y="-13.7" font-family="Times,serif" font-size="14.00">data 2.0000</text>
<polyline fill="none" stroke="black" points="113,-1 113,-36.5"/>
<text text-anchor="middle" x="153.62" y="-13.7" font-family="Times,serif" font-size="14.00">grad 0.0000</text>
</g>
<!-- 4834519440&#45;&gt;4834523984* -->
<g id="edge10" class="edge">
<title>4834519440&#45;&gt;4834523984*</title>
<path fill="none" stroke="black" d="M167.33,-36.46C177.67,-39.59 188.17,-42.97 198,-46.5 208.06,-50.11 218.81,-54.57 228.49,-58.82"/>
<polygon fill="black" stroke="black" points="226.92,-62.4 237.48,-63.29 229.78,-56.01 226.92,-62.4"/>
</g>
<!-- 4834524624 -->
<g id="node14" class="node">
<title>4834524624</title>
<polygon fill="none" stroke="black" points="668.25,-82.5 668.25,-118.5 939,-118.5 939,-82.5 668.25,-82.5"/>
<text text-anchor="middle" x="720.88" y="-95.7" font-family="Times,serif" font-size="14.00">x1*w1 + x2*w2</text>
<polyline fill="none" stroke="black" points="773.5,-83 773.5,-118.5"/>
<text text-anchor="middle" x="815.62" y="-95.7" font-family="Times,serif" font-size="14.00">data &#45;6.0000</text>
<polyline fill="none" stroke="black" points="857.75,-83 857.75,-118.5"/>
<text text-anchor="middle" x="898.38" y="-95.7" font-family="Times,serif" font-size="14.00">grad 0.5000</text>
</g>
<!-- 4834524624&#45;&gt;4834523600+ -->
<g id="edge14" class="edge">
<title>4834524624&#45;&gt;4834523600+</title>
<path fill="none" stroke="black" d="M935.34,-118.47C945.74,-119.9 955.6,-121.26 964.36,-122.46"/>
<polygon fill="black" stroke="black" points="963.82,-126.06 974.2,-123.95 964.77,-119.12 963.82,-126.06"/>
</g>
<!-- 4834524624+&#45;&gt;4834524624 -->
<g id="edge5" class="edge">
<title>4834524624+&#45;&gt;4834524624</title>
<path fill="none" stroke="black" d="M632.73,-100.5C639.96,-100.5 648.32,-100.5 657.38,-100.5"/>
<polygon fill="black" stroke="black" points="657.32,-104 667.32,-100.5 657.32,-97 657.32,-104"/>
</g>
</g>
</svg>
