<?xml version="1.0" encoding="UTF-8" standalone="no"?>
<!DOCTYPE svg PUBLIC "-//W3C//DTD SVG 1.1//EN"
 "http://www.w3.org/Graphics/SVG/1.1/DTD/svg11.dtd">
<!-- Generated by graphviz version 8.0.5 (20230430.1635)
 -->
<!-- Pages: 1 -->
<svg width="1567pt" height="210pt"
 viewBox="0.00 0.00 1566.50 210.00" xmlns="http://www.w3.org/2000/svg" xmlns:xlink="http://www.w3.org/1999/xlink">
<g id="graph0" class="graph" transform="scale(1 1) rotate(0) translate(4 206)">
<polygon fill="white" stroke="none" points="-4,4 -4,-206 1562.5,-206 1562.5,4 -4,4"/>
<!-- 4834598352 -->
<g id="node1" class="node">
<title>4834598352</title>
<polygon fill="none" stroke="black" points="326.25,-55.5 326.25,-91.5 540,-91.5 540,-55.5 326.25,-55.5"/>
<text text-anchor="middle" x="352.62" y="-68.7" font-family="Times,serif" font-size="14.00">x2*w2</text>
<polyline fill="none" stroke="black" points="379,-56 379,-91.5"/>
<text text-anchor="middle" x="418.88" y="-68.7" font-family="Times,serif" font-size="14.00">data 0.0000</text>
<polyline fill="none" stroke="black" points="458.75,-56 458.75,-91.5"/>
<text text-anchor="middle" x="499.38" y="-68.7" font-family="Times,serif" font-size="14.00">grad 0.0000</text>
</g>
<!-- 4834593104+ -->
<g id="node9" class="node">
<title>4834593104+</title>
<ellipse fill="none" stroke="black" cx="605.25" cy="-100.5" rx="27" ry="18"/>
<text text-anchor="middle" x="605.25" y="-95.45" font-family="Times,serif" font-size="14.00">+</text>
</g>
<!-- 4834598352&#45;&gt;4834593104+ -->
<g id="edge13" class="edge">
<title>4834598352&#45;&gt;4834593104+</title>
<path fill="none" stroke="black" d="M539.93,-90.29C549.89,-91.87 559.45,-93.39 568.01,-94.75"/>
<polygon fill="black" stroke="black" points="567.21,-98.32 577.64,-96.43 568.31,-91.41 567.21,-98.32"/>
</g>
<!-- 4834598352* -->
<g id="node2" class="node">
<title>4834598352*</title>
<ellipse fill="none" stroke="black" cx="261" cy="-73.5" rx="27" ry="18"/>
<text text-anchor="middle" x="261" y="-68.45" font-family="Times,serif" font-size="14.00">*</text>
</g>
<!-- 4834598352*&#45;&gt;4834598352 -->
<g id="edge1" class="edge">
<title>4834598352*&#45;&gt;4834598352</title>
<path fill="none" stroke="black" d="M288.21,-73.5C296.23,-73.5 305.63,-73.5 315.71,-73.5"/>
<polygon fill="black" stroke="black" points="315.43,-77 325.43,-73.5 315.43,-70 315.43,-77"/>
</g>
<!-- 4834594320 -->
<g id="node3" class="node">
<title>4834594320</title>
<polygon fill="none" stroke="black" points="1377.75,-109.5 1377.75,-145.5 1558.5,-145.5 1558.5,-109.5 1377.75,-109.5"/>
<text text-anchor="middle" x="1387.62" y="-122.7" font-family="Times,serif" font-size="14.00"> </text>
<polyline fill="none" stroke="black" points="1397.5,-110 1397.5,-145.5"/>
<text text-anchor="middle" x="1437.38" y="-122.7" font-family="Times,serif" font-size="14.00">data 0.6044</text>
<polyline fill="none" stroke="black" points="1477.25,-110 1477.25,-145.5"/>
<text text-anchor="middle" x="1517.88" y="-122.7" font-family="Times,serif" font-size="14.00">grad 0.0000</text>
</g>
<!-- 4834594320tanh -->
<g id="node4" class="node">
<title>4834594320tanh</title>
<ellipse fill="none" stroke="black" cx="1314.75" cy="-127.5" rx="27" ry="18"/>
<text text-anchor="middle" x="1314.75" y="-122.45" font-family="Times,serif" font-size="14.00">tanh</text>
</g>
<!-- 4834594320tanh&#45;&gt;4834594320 -->
<g id="edge2" class="edge">
<title>4834594320tanh&#45;&gt;4834594320</title>
<path fill="none" stroke="black" d="M1342.12,-127.5C1349.55,-127.5 1358.1,-127.5 1367.17,-127.5"/>
<polygon fill="black" stroke="black" points="1367.02,-131 1377.02,-127.5 1367.02,-124 1367.02,-131"/>
</g>
<!-- 4834600976 -->
<g id="node5" class="node">
<title>4834600976</title>
<polygon fill="none" stroke="black" points="713.25,-137.5 713.25,-173.5 897,-173.5 897,-137.5 713.25,-137.5"/>
<text text-anchor="middle" x="724.62" y="-150.7" font-family="Times,serif" font-size="14.00">b</text>
<polyline fill="none" stroke="black" points="736,-138 736,-173.5"/>
<text text-anchor="middle" x="775.88" y="-150.7" font-family="Times,serif" font-size="14.00">data 6.7000</text>
<polyline fill="none" stroke="black" points="815.75,-138 815.75,-173.5"/>
<text text-anchor="middle" x="856.38" y="-150.7" font-family="Times,serif" font-size="14.00">grad 0.0000</text>
</g>
<!-- 4834594256+ -->
<g id="node15" class="node">
<title>4834594256+</title>
<ellipse fill="none" stroke="black" cx="1005" cy="-127.5" rx="27" ry="18"/>
<text text-anchor="middle" x="1005" y="-122.45" font-family="Times,serif" font-size="14.00">+</text>
</g>
<!-- 4834600976&#45;&gt;4834594256+ -->
<g id="edge11" class="edge">
<title>4834600976&#45;&gt;4834594256+</title>
<path fill="none" stroke="black" d="M896.95,-142.65C921.87,-139.12 947.48,-135.5 967.39,-132.68"/>
<polygon fill="black" stroke="black" points="967.71,-136.03 977.12,-131.16 966.73,-129.1 967.71,-136.03"/>
</g>
<!-- 4835196112 -->
<g id="node6" class="node">
<title>4835196112</title>
<polygon fill="none" stroke="black" points="2.25,-55.5 2.25,-91.5 195.75,-91.5 195.75,-55.5 2.25,-55.5"/>
<text text-anchor="middle" x="18.5" y="-68.7" font-family="Times,serif" font-size="14.00">w2</text>
<polyline fill="none" stroke="black" points="34.75,-56 34.75,-91.5"/>
<text text-anchor="middle" x="74.62" y="-68.7" font-family="Times,serif" font-size="14.00">data 1.0000</text>
<polyline fill="none" stroke="black" points="114.5,-56 114.5,-91.5"/>
<text text-anchor="middle" x="155.12" y="-68.7" font-family="Times,serif" font-size="14.00">grad 0.0000</text>
</g>
<!-- 4835196112&#45;&gt;4834598352* -->
<g id="edge10" class="edge">
<title>4835196112&#45;&gt;4834598352*</title>
<path fill="none" stroke="black" d="M195.38,-73.5C205.05,-73.5 214.4,-73.5 222.84,-73.5"/>
<polygon fill="black" stroke="black" points="222.75,-77 232.75,-73.5 222.75,-70 222.75,-77"/>
</g>
<!-- 4658300624 -->
<g id="node7" class="node">
<title>4658300624</title>
<polygon fill="none" stroke="black" points="3.75,-0.5 3.75,-36.5 194.25,-36.5 194.25,-0.5 3.75,-0.5"/>
<text text-anchor="middle" x="18.5" y="-13.7" font-family="Times,serif" font-size="14.00">x2</text>
<polyline fill="none" stroke="black" points="33.25,-1 33.25,-36.5"/>
<text text-anchor="middle" x="73.12" y="-13.7" font-family="Times,serif" font-size="14.00">data 0.0000</text>
<polyline fill="none" stroke="black" points="113,-1 113,-36.5"/>
<text text-anchor="middle" x="153.62" y="-13.7" font-family="Times,serif" font-size="14.00">grad 0.0000</text>
</g>
<!-- 4658300624&#45;&gt;4834598352* -->
<g id="edge8" class="edge">
<title>4658300624&#45;&gt;4834598352*</title>
<path fill="none" stroke="black" d="M167.33,-36.46C177.67,-39.59 188.17,-42.97 198,-46.5 208.06,-50.11 218.81,-54.57 228.49,-58.82"/>
<polygon fill="black" stroke="black" points="226.92,-62.4 237.48,-63.29 229.78,-56.01 226.92,-62.4"/>
</g>
<!-- 4834593104 -->
<g id="node8" class="node">
<title>4834593104</title>
<polygon fill="none" stroke="black" points="668.25,-82.5 668.25,-118.5 942,-118.5 942,-82.5 668.25,-82.5"/>
<text text-anchor="middle" x="722.38" y="-95.7" font-family="Times,serif" font-size="14.00">x1*w1 + w2*w2</text>
<polyline fill="none" stroke="black" points="776.5,-83 776.5,-118.5"/>
<text text-anchor="middle" x="818.62" y="-95.7" font-family="Times,serif" font-size="14.00">data &#45;6.0000</text>
<polyline fill="none" stroke="black" points="860.75,-83 860.75,-118.5"/>
<text text-anchor="middle" x="901.38" y="-95.7" font-family="Times,serif" font-size="14.00">grad 0.0000</text>
</g>
<!-- 4834593104&#45;&gt;4834594256+ -->
<g id="edge9" class="edge">
<title>4834593104&#45;&gt;4834594256+</title>
<path fill="none" stroke="black" d="M937.84,-118.47C948.54,-119.93 958.67,-121.31 967.63,-122.54"/>
<polygon fill="black" stroke="black" points="966.94,-126.11 977.32,-124 967.89,-119.18 966.94,-126.11"/>
</g>
<!-- 4834593104+&#45;&gt;4834593104 -->
<g id="edge3" class="edge">
<title>4834593104+&#45;&gt;4834593104</title>
<path fill="none" stroke="black" d="M632.53,-100.5C639.86,-100.5 648.38,-100.5 657.63,-100.5"/>
<polygon fill="black" stroke="black" points="657.35,-104 667.35,-100.5 657.35,-97 657.35,-104"/>
</g>
<!-- 4835196752 -->
<g id="node10" class="node">
<title>4835196752</title>
<polygon fill="none" stroke="black" points="0,-165.5 0,-201.5 198,-201.5 198,-165.5 0,-165.5"/>
<text text-anchor="middle" x="16.25" y="-178.7" font-family="Times,serif" font-size="14.00">w1</text>
<polyline fill="none" stroke="black" points="32.5,-166 32.5,-201.5"/>
<text text-anchor="middle" x="74.62" y="-178.7" font-family="Times,serif" font-size="14.00">data &#45;3.0000</text>
<polyline fill="none" stroke="black" points="116.75,-166 116.75,-201.5"/>
<text text-anchor="middle" x="157.38" y="-178.7" font-family="Times,serif" font-size="14.00">grad 0.0000</text>
</g>
<!-- 4834599312* -->
<g id="node12" class="node">
<title>4834599312*</title>
<ellipse fill="none" stroke="black" cx="261" cy="-128.5" rx="27" ry="18"/>
<text text-anchor="middle" x="261" y="-123.45" font-family="Times,serif" font-size="14.00">*</text>
</g>
<!-- 4835196752&#45;&gt;4834599312* -->
<g id="edge14" class="edge">
<title>4835196752&#45;&gt;4834599312*</title>
<path fill="none" stroke="black" d="M170.28,-165.56C179.67,-162.75 189.12,-159.71 198,-156.5 208.31,-152.78 219.28,-148.08 229.1,-143.59"/>
<polygon fill="black" stroke="black" points="230.24,-146.46 237.82,-139.05 227.28,-140.11 230.24,-146.46"/>
</g>
<!-- 4834599312 -->
<g id="node11" class="node">
<title>4834599312</title>
<polygon fill="none" stroke="black" points="324,-110.5 324,-146.5 542.25,-146.5 542.25,-110.5 324,-110.5"/>
<text text-anchor="middle" x="350.38" y="-123.7" font-family="Times,serif" font-size="14.00">x1*w1</text>
<polyline fill="none" stroke="black" points="376.75,-111 376.75,-146.5"/>
<text text-anchor="middle" x="418.88" y="-123.7" font-family="Times,serif" font-size="14.00">data &#45;6.0000</text>
<polyline fill="none" stroke="black" points="461,-111 461,-146.5"/>
<text text-anchor="middle" x="501.62" y="-123.7" font-family="Times,serif" font-size="14.00">grad 0.0000</text>
</g>
<!-- 4834599312&#45;&gt;4834593104+ -->
<g id="edge6" class="edge">
<title>4834599312&#45;&gt;4834593104+</title>
<path fill="none" stroke="black" d="M541.87,-110.77C551.1,-109.25 559.95,-107.79 567.93,-106.48"/>
<polygon fill="black" stroke="black" points="568.29,-109.8 577.59,-104.72 567.16,-102.89 568.29,-109.8"/>
</g>
<!-- 4834599312*&#45;&gt;4834599312 -->
<g id="edge4" class="edge">
<title>4834599312*&#45;&gt;4834599312</title>
<path fill="none" stroke="black" d="M288.21,-128.5C295.58,-128.5 304.1,-128.5 313.25,-128.5"/>
<polygon fill="black" stroke="black" points="313.24,-132 323.24,-128.5 313.24,-125 313.24,-132"/>
</g>
<!-- 4835146640 -->
<g id="node13" class="node">
<title>4835146640</title>
<polygon fill="none" stroke="black" points="3.75,-110.5 3.75,-146.5 194.25,-146.5 194.25,-110.5 3.75,-110.5"/>
<text text-anchor="middle" x="18.5" y="-123.7" font-family="Times,serif" font-size="14.00">x1</text>
<polyline fill="none" stroke="black" points="33.25,-111 33.25,-146.5"/>
<text text-anchor="middle" x="73.12" y="-123.7" font-family="Times,serif" font-size="14.00">data 2.0000</text>
<polyline fill="none" stroke="black" points="113,-111 113,-146.5"/>
<text text-anchor="middle" x="153.62" y="-123.7" font-family="Times,serif" font-size="14.00">grad 0.0000</text>
</g>
<!-- 4835146640&#45;&gt;4834599312* -->
<g id="edge12" class="edge">
<title>4835146640&#45;&gt;4834599312*</title>
<path fill="none" stroke="black" d="M194,-128.5C204.12,-128.5 213.93,-128.5 222.76,-128.5"/>
<polygon fill="black" stroke="black" points="222.74,-132 232.74,-128.5 222.74,-125 222.74,-132"/>
</g>
<!-- 4834594256 -->
<g id="node14" class="node">
<title>4834594256</title>
<polygon fill="none" stroke="black" points="1068,-109.5 1068,-145.5 1251.75,-145.5 1251.75,-109.5 1068,-109.5"/>
<text text-anchor="middle" x="1079.38" y="-122.7" font-family="Times,serif" font-size="14.00">n</text>
<polyline fill="none" stroke="black" points="1090.75,-110 1090.75,-145.5"/>
<text text-anchor="middle" x="1130.62" y="-122.7" font-family="Times,serif" font-size="14.00">data 0.7000</text>
<polyline fill="none" stroke="black" points="1170.5,-110 1170.5,-145.5"/>
<text text-anchor="middle" x="1211.12" y="-122.7" font-family="Times,serif" font-size="14.00">grad 0.0000</text>
</g>
<!-- 4834594256&#45;&gt;4834594320tanh -->
<g id="edge7" class="edge">
<title>4834594256&#45;&gt;4834594320tanh</title>
<path fill="none" stroke="black" d="M1251.57,-127.5C1260.3,-127.5 1268.76,-127.5 1276.5,-127.5"/>
<polygon fill="black" stroke="black" points="1276.25,-131 1286.25,-127.5 1276.25,-124 1276.25,-131"/>
</g>
<!-- 4834594256+&#45;&gt;4834594256 -->
<g id="edge5" class="edge">
<title>4834594256+&#45;&gt;4834594256</title>
<path fill="none" stroke="black" d="M1032.28,-127.5C1039.7,-127.5 1048.26,-127.5 1057.35,-127.5"/>
<polygon fill="black" stroke="black" points="1057.22,-131 1067.22,-127.5 1057.22,-124 1057.22,-131"/>
</g>
</g>
</svg>
