<?xml version="1.0" encoding="UTF-8" standalone="no"?>
<!DOCTYPE svg PUBLIC "-//W3C//DTD SVG 1.1//EN"
 "http://www.w3.org/Graphics/SVG/1.1/DTD/svg11.dtd">
<!-- Generated by graphviz version 8.0.5 (20230430.1635)
 -->
<!-- Pages: 1 -->
<svg width="815pt" height="154pt"
 viewBox="0.00 0.00 814.75 154.00" xmlns="http://www.w3.org/2000/svg" xmlns:xlink="http://www.w3.org/1999/xlink">
<g id="graph0" class="graph" transform="scale(1 1) rotate(0) translate(4 150)">
<polygon fill="white" stroke="none" points="-4,4 -4,-150 810.75,-150 810.75,4 -4,4"/>
<!-- 4826298896 -->
<g id="node1" class="node">
<title>4826298896</title>
<polygon fill="none" stroke="black" points="234.12,-27.5 234.12,-63.5 340.38,-63.5 340.38,-27.5 234.12,-27.5"/>
<text text-anchor="middle" x="245.12" y="-40.7" font-family="Times,serif" font-size="14.00">e</text>
<polyline fill="none" stroke="black" points="256.12,-28 256.12,-63.5"/>
<text text-anchor="middle" x="298.25" y="-40.7" font-family="Times,serif" font-size="14.00">data &#45;6.0000</text>
</g>
<!-- 4826285392+ -->
<g id="node9" class="node">
<title>4826285392+</title>
<ellipse fill="none" stroke="black" cx="404.5" cy="-72.5" rx="27" ry="18"/>
<text text-anchor="middle" x="404.5" y="-67.45" font-family="Times,serif" font-size="14.00">+</text>
</g>
<!-- 4826298896&#45;&gt;4826285392+ -->
<g id="edge4" class="edge">
<title>4826298896&#45;&gt;4826285392+</title>
<path fill="none" stroke="black" d="M340.14,-57.66C349.55,-59.86 359.17,-62.11 367.97,-64.18"/>
<polygon fill="black" stroke="black" points="367.08,-67.8 377.62,-66.67 368.68,-60.98 367.08,-67.8"/>
</g>
<!-- 4826298896* -->
<g id="node2" class="node">
<title>4826298896*</title>
<ellipse fill="none" stroke="black" cx="170" cy="-45.5" rx="27" ry="18"/>
<text text-anchor="middle" x="170" y="-40.45" font-family="Times,serif" font-size="14.00">*</text>
</g>
<!-- 4826298896*&#45;&gt;4826298896 -->
<g id="edge1" class="edge">
<title>4826298896*&#45;&gt;4826298896</title>
<path fill="none" stroke="black" d="M197.44,-45.5C205.37,-45.5 214.43,-45.5 223.65,-45.5"/>
<polygon fill="black" stroke="black" points="223.51,-49 233.51,-45.5 223.51,-42 223.51,-49"/>
</g>
<!-- 4655950864 -->
<g id="node3" class="node">
<title>4655950864</title>
<polygon fill="none" stroke="black" points="233,-82.5 233,-118.5 341.5,-118.5 341.5,-82.5 233,-82.5"/>
<text text-anchor="middle" x="244" y="-95.7" font-family="Times,serif" font-size="14.00">c</text>
<polyline fill="none" stroke="black" points="255,-83 255,-118.5"/>
<text text-anchor="middle" x="298.25" y="-95.7" font-family="Times,serif" font-size="14.00">data 10.0000</text>
</g>
<!-- 4655950864&#45;&gt;4826285392+ -->
<g id="edge6" class="edge">
<title>4655950864&#45;&gt;4826285392+</title>
<path fill="none" stroke="black" d="M341.49,-87.57C350.51,-85.37 359.68,-83.15 368.1,-81.1"/>
<polygon fill="black" stroke="black" points="368.77,-84.3 377.66,-78.54 367.12,-77.5 368.77,-84.3"/>
</g>
<!-- 4826292816 -->
<g id="node4" class="node">
<title>4826292816</title>
<polygon fill="none" stroke="black" points="467.5,-109.5 467.5,-145.5 572.25,-145.5 572.25,-109.5 467.5,-109.5"/>
<text text-anchor="middle" x="477.75" y="-122.7" font-family="Times,serif" font-size="14.00">f</text>
<polyline fill="none" stroke="black" points="488,-110 488,-145.5"/>
<text text-anchor="middle" x="530.12" y="-122.7" font-family="Times,serif" font-size="14.00">data &#45;2.0000</text>
</g>
<!-- 4826290896* -->
<g id="node6" class="node">
<title>4826290896*</title>
<ellipse fill="none" stroke="black" cx="635.25" cy="-99.5" rx="27" ry="18"/>
<text text-anchor="middle" x="635.25" y="-94.45" font-family="Times,serif" font-size="14.00">*</text>
</g>
<!-- 4826292816&#45;&gt;4826290896* -->
<g id="edge8" class="edge">
<title>4826292816&#45;&gt;4826290896*</title>
<path fill="none" stroke="black" d="M571.92,-114.89C581.1,-112.63 590.47,-110.31 599.07,-108.19"/>
<polygon fill="black" stroke="black" points="599.6,-111.41 608.47,-105.62 597.93,-104.62 599.6,-111.41"/>
</g>
<!-- 4826290896 -->
<g id="node5" class="node">
<title>4826290896</title>
<polygon fill="none" stroke="black" points="698.25,-81.5 698.25,-117.5 806.75,-117.5 806.75,-81.5 698.25,-81.5"/>
<text text-anchor="middle" x="710.38" y="-94.7" font-family="Times,serif" font-size="14.00">L</text>
<polyline fill="none" stroke="black" points="722.5,-82 722.5,-117.5"/>
<text text-anchor="middle" x="764.62" y="-94.7" font-family="Times,serif" font-size="14.00">data &#45;8.0000</text>
</g>
<!-- 4826290896*&#45;&gt;4826290896 -->
<g id="edge2" class="edge">
<title>4826290896*&#45;&gt;4826290896</title>
<path fill="none" stroke="black" d="M662.69,-99.5C670.25,-99.5 678.83,-99.5 687.61,-99.5"/>
<polygon fill="black" stroke="black" points="687.37,-103 697.37,-99.5 687.37,-96 687.37,-103"/>
</g>
<!-- 4832930576 -->
<g id="node7" class="node">
<title>4832930576</title>
<polygon fill="none" stroke="black" points="2.62,-55.5 2.62,-91.5 104.38,-91.5 104.38,-55.5 2.62,-55.5"/>
<text text-anchor="middle" x="13.62" y="-68.7" font-family="Times,serif" font-size="14.00">a</text>
<polyline fill="none" stroke="black" points="24.62,-56 24.62,-91.5"/>
<text text-anchor="middle" x="64.5" y="-68.7" font-family="Times,serif" font-size="14.00">data 2.0000</text>
</g>
<!-- 4832930576&#45;&gt;4826298896* -->
<g id="edge7" class="edge">
<title>4832930576&#45;&gt;4826298896*</title>
<path fill="none" stroke="black" d="M104.06,-61.38C114.05,-58.94 124.36,-56.42 133.74,-54.12"/>
<polygon fill="black" stroke="black" points="134.37,-57.33 143.25,-51.55 132.7,-50.53 134.37,-57.33"/>
</g>
<!-- 4826285392 -->
<g id="node8" class="node">
<title>4826285392</title>
<polygon fill="none" stroke="black" points="468.62,-54.5 468.62,-90.5 571.12,-90.5 571.12,-54.5 468.62,-54.5"/>
<text text-anchor="middle" x="480" y="-67.7" font-family="Times,serif" font-size="14.00">d</text>
<polyline fill="none" stroke="black" points="491.38,-55 491.38,-90.5"/>
<text text-anchor="middle" x="531.25" y="-67.7" font-family="Times,serif" font-size="14.00">data 4.0000</text>
</g>
<!-- 4826285392&#45;&gt;4826290896* -->
<g id="edge9" class="edge">
<title>4826285392&#45;&gt;4826290896*</title>
<path fill="none" stroke="black" d="M570.93,-84.42C580.28,-86.65 589.86,-88.93 598.66,-91.02"/>
<polygon fill="black" stroke="black" points="597.76,-94.65 608.3,-93.56 599.38,-87.84 597.76,-94.65"/>
</g>
<!-- 4826285392+&#45;&gt;4826285392 -->
<g id="edge3" class="edge">
<title>4826285392+&#45;&gt;4826285392</title>
<path fill="none" stroke="black" d="M431.8,-72.5C439.69,-72.5 448.71,-72.5 457.88,-72.5"/>
<polygon fill="black" stroke="black" points="457.65,-76 467.65,-72.5 457.65,-69 457.65,-76"/>
</g>
<!-- 4831210832 -->
<g id="node10" class="node">
<title>4831210832</title>
<polygon fill="none" stroke="black" points="0,-0.5 0,-36.5 107,-36.5 107,-0.5 0,-0.5"/>
<text text-anchor="middle" x="11.38" y="-13.7" font-family="Times,serif" font-size="14.00">b</text>
<polyline fill="none" stroke="black" points="22.75,-1 22.75,-36.5"/>
<text text-anchor="middle" x="64.88" y="-13.7" font-family="Times,serif" font-size="14.00">data &#45;3.0000</text>
</g>
<!-- 4831210832&#45;&gt;4826298896* -->
<g id="edge5" class="edge">
<title>4831210832&#45;&gt;4826298896*</title>
<path fill="none" stroke="black" d="M106.72,-30.81C115.75,-32.94 124.94,-35.11 133.39,-37.1"/>
<polygon fill="black" stroke="black" points="132.46,-40.72 143,-39.6 134.07,-33.9 132.46,-40.72"/>
</g>
</g>
</svg>
